<svg width="400" height="400" xmlns="http://www.w3.org/2000/svg" style="background:white;">
    <line x1="0" y1="0" x2="0" y2="400" stroke="#eee" stroke-width="0.5" />
    <line x1="25" y1="0" x2="25" y2="400" stroke="#eee" stroke-width="0.5" />
    <line x1="50" y1="0" x2="50" y2="400" stroke="#eee" stroke-width="0.5" />
    <line x1="75" y1="0" x2="75" y2="400" stroke="#eee" stroke-width="0.5" />
    <line x1="100" y1="0" x2="100" y2="400" stroke="#eee" stroke-width="0.5" />
    <line x1="125" y1="0" x2="125" y2="400" stroke="#eee" stroke-width="0.5" />
    <line x1="150" y1="0" x2="150" y2="400" stroke="#eee" stroke-width="0.5" />
    <line x1="175" y1="0" x2="175" y2="400" stroke="#eee" stroke-width="0.5" />
    <line x1="200" y1="0" x2="200" y2="400" stroke="#eee" stroke-width="0.5" />
    <line x1="225" y1="0" x2="225" y2="400" stroke="#eee" stroke-width="0.5" />
    <line x1="250" y1="0" x2="250" y2="400" stroke="#eee" stroke-width="0.5" />
    <line x1="275" y1="0" x2="275" y2="400" stroke="#eee" stroke-width="0.5" />
    <line x1="300" y1="0" x2="300" y2="400" stroke="#eee" stroke-width="0.5" />
    <line x1="325" y1="0" x2="325" y2="400" stroke="#eee" stroke-width="0.5" />
    <line x1="350" y1="0" x2="350" y2="400" stroke="#eee" stroke-width="0.5" />
    <line x1="375" y1="0" x2="375" y2="400" stroke="#eee" stroke-width="0.5" />
    <text x="10" y="18" font-size="18" fill="black">4x - 10 = 2x + 20</text>
    <text x="160" y="18" font-size="18" fill="red">| +10</text>
    <text x="10" y="38" font-size="18" fill="black">4x = 2x + 30</text>
    <text x="160" y="38" font-size="18" fill="red">| -2x</text>
    <text x="10" y="58" font-size="18" fill="black">2x = 30</text>
    <text x="160" y="58" font-size="18" fill="red">| : 2</text>
    <text x="10" y="78" font-size="18" fill="black">x = 15</text>
    <line x1="10" y1="80" x2="60" y2="80" stroke="black" stroke-width="1.0" />
    <line x1="10" y1="82" x2="60" y2="82" stroke="black" stroke-width="1.0" />
    <text x="10" y="118" font-size="18" fill="black">4x - 10 = 2x + 20</text>
    <line x1="70" y1="120" x2="70" y2="240" stroke="black" stroke-width="1.0" />
    <text x="32" y="138" font-size="18" fill="red">+10</text>
    <text x="103" y="138" font-size="18" fill="red">+10</text>
    <text x="43" y="158" font-size="18" fill="black">4x = 2x + 30</text>
    <text x="32" y="178" font-size="18" fill="red">-2x</text>
    <text x="103" y="178" font-size="18" fill="red">-2x</text>
    <text x="43" y="198" font-size="18" fill="black">2x = 30</text>
    <text x="32" y="218" font-size="18" fill="red">: 2</text>
    <text x="103" y="218" font-size="18" fill="red">: 2</text>
    <text x="50" y="238" font-size="18" fill="black">x = 15</text>
    <circle cx="300" cy="300" r="3.0" fill="blue" /><text x="303.0" y="297.0" font-size="12" fill="blue">(_/_)</text>
</svg>