<svg width="400" height="400" xmlns="http://www.w3.org/2000/svg" style="background:white;">
    <line x1="0" y1="200.0" x2="400" y2="200.0" stroke="black" stroke-width="1.0" />
    <line x1="200.0" y1="0" x2="200.0" y2="400" stroke="black" stroke-width="1.0" />
    <line x1="0.0" y1="0" x2="0.0" y2="400" stroke="#eee" stroke-width="0.5" />
    <line x1="25.0" y1="0" x2="25.0" y2="400" stroke="#eee" stroke-width="0.5" />
    <line x1="50.0" y1="0" x2="50.0" y2="400" stroke="#eee" stroke-width="0.5" />
    <line x1="75.0" y1="0" x2="75.0" y2="400" stroke="#eee" stroke-width="0.5" />
    <line x1="100.0" y1="0" x2="100.0" y2="400" stroke="#eee" stroke-width="0.5" />
    <line x1="125.0" y1="0" x2="125.0" y2="400" stroke="#eee" stroke-width="0.5" />
    <line x1="150.0" y1="0" x2="150.0" y2="400" stroke="#eee" stroke-width="0.5" />
    <line x1="175.0" y1="0" x2="175.0" y2="400" stroke="#eee" stroke-width="0.5" />
    <line x1="200.0" y1="0" x2="200.0" y2="400" stroke="#eee" stroke-width="0.5" />
    <line x1="225.0" y1="0" x2="225.0" y2="400" stroke="#eee" stroke-width="0.5" />
    <line x1="250.0" y1="0" x2="250.0" y2="400" stroke="#eee" stroke-width="0.5" />
    <line x1="275.0" y1="0" x2="275.0" y2="400" stroke="#eee" stroke-width="0.5" />
    <line x1="300.0" y1="0" x2="300.0" y2="400" stroke="#eee" stroke-width="0.5" />
    <line x1="325.0" y1="0" x2="325.0" y2="400" stroke="#eee" stroke-width="0.5" />
    <line x1="350.0" y1="0" x2="350.0" y2="400" stroke="#eee" stroke-width="0.5" />
    <line x1="375.0" y1="0" x2="375.0" y2="400" stroke="#eee" stroke-width="0.5" />
    <line x1="400.0" y1="0" x2="400.0" y2="400" stroke="#eee" stroke-width="0.5" />
    <line x1="0" y1="400.0" x2="400" y2="400.0" stroke="#eee" stroke-width="0.5" />
    <line x1="0" y1="375.0" x2="400" y2="375.0" stroke="#eee" stroke-width="0.5" />
    <line x1="0" y1="350.0" x2="400" y2="350.0" stroke="#eee" stroke-width="0.5" />
    <line x1="0" y1="325.0" x2="400" y2="325.0" stroke="#eee" stroke-width="0.5" />
    <line x1="0" y1="300.0" x2="400" y2="300.0" stroke="#eee" stroke-width="0.5" />
    <line x1="0" y1="275.0" x2="400" y2="275.0" stroke="#eee" stroke-width="0.5" />
    <line x1="0" y1="250.0" x2="400" y2="250.0" stroke="#eee" stroke-width="0.5" />
    <line x1="0" y1="225.0" x2="400" y2="225.0" stroke="#eee" stroke-width="0.5" />
    <line x1="0" y1="200.0" x2="400" y2="200.0" stroke="#eee" stroke-width="0.5" />
    <line x1="0" y1="175.0" x2="400" y2="175.0" stroke="#eee" stroke-width="0.5" />
    <line x1="0" y1="150.0" x2="400" y2="150.0" stroke="#eee" stroke-width="0.5" />
    <line x1="0" y1="125.0" x2="400" y2="125.0" stroke="#eee" stroke-width="0.5" />
    <line x1="0" y1="100.0" x2="400" y2="100.0" stroke="#eee" stroke-width="0.5" />
    <line x1="0" y1="75.0" x2="400" y2="75.0" stroke="#eee" stroke-width="0.5" />
    <line x1="0" y1="50.0" x2="400" y2="50.0" stroke="#eee" stroke-width="0.5" />
    <line x1="0" y1="25.0" x2="400" y2="25.0" stroke="#eee" stroke-width="0.5" />
    <line x1="0" y1="0.0" x2="400" y2="0.0" stroke="#eee" stroke-width="0.5" />
    <line x1="0.0" y1="197.0" x2="0.0" y2="203.0" stroke="black" stroke-width="0.5" />
    <text x="-1.25" y="208.0" font-size="4" fill="black">-8</text>
    <line x1="25.0" y1="197.0" x2="25.0" y2="203.0" stroke="black" stroke-width="0.5" />
    <text x="23.75" y="208.0" font-size="4" fill="black">-7</text>
    <line x1="50.0" y1="197.0" x2="50.0" y2="203.0" stroke="black" stroke-width="0.5" />
    <text x="48.75" y="208.0" font-size="4" fill="black">-6</text>
    <line x1="75.0" y1="197.0" x2="75.0" y2="203.0" stroke="black" stroke-width="0.5" />
    <text x="73.75" y="208.0" font-size="4" fill="black">-5</text>
    <line x1="100.0" y1="197.0" x2="100.0" y2="203.0" stroke="black" stroke-width="0.5" />
    <text x="98.75" y="208.0" font-size="4" fill="black">-4</text>
    <line x1="125.0" y1="197.0" x2="125.0" y2="203.0" stroke="black" stroke-width="0.5" />
    <text x="123.75" y="208.0" font-size="4" fill="black">-3</text>
    <line x1="150.0" y1="197.0" x2="150.0" y2="203.0" stroke="black" stroke-width="0.5" />
    <text x="148.75" y="208.0" font-size="4" fill="black">-2</text>
    <line x1="175.0" y1="197.0" x2="175.0" y2="203.0" stroke="black" stroke-width="0.5" />
    <text x="173.75" y="208.0" font-size="4" fill="black">-1</text>
    <line x1="200.0" y1="197.0" x2="200.0" y2="203.0" stroke="black" stroke-width="0.5" />
    <text x="198.75" y="208.0" font-size="4" fill="black">0</text>
    <line x1="225.0" y1="197.0" x2="225.0" y2="203.0" stroke="black" stroke-width="0.5" />
    <text x="223.75" y="208.0" font-size="4" fill="black">1</text>
    <line x1="250.0" y1="197.0" x2="250.0" y2="203.0" stroke="black" stroke-width="0.5" />
    <text x="248.75" y="208.0" font-size="4" fill="black">2</text>
    <line x1="275.0" y1="197.0" x2="275.0" y2="203.0" stroke="black" stroke-width="0.5" />
    <text x="273.75" y="208.0" font-size="4" fill="black">3</text>
    <line x1="300.0" y1="197.0" x2="300.0" y2="203.0" stroke="black" stroke-width="0.5" />
    <text x="298.75" y="208.0" font-size="4" fill="black">4</text>
    <line x1="325.0" y1="197.0" x2="325.0" y2="203.0" stroke="black" stroke-width="0.5" />
    <text x="323.75" y="208.0" font-size="4" fill="black">5</text>
    <line x1="350.0" y1="197.0" x2="350.0" y2="203.0" stroke="black" stroke-width="0.5" />
    <text x="348.75" y="208.0" font-size="4" fill="black">6</text>
    <line x1="375.0" y1="197.0" x2="375.0" y2="203.0" stroke="black" stroke-width="0.5" />
    <text x="373.75" y="208.0" font-size="4" fill="black">7</text>
    <line x1="400.0" y1="197.0" x2="400.0" y2="203.0" stroke="black" stroke-width="0.5" />
    <text x="398.75" y="208.0" font-size="4" fill="black">8</text>
    <line x1="197.0" y1="400.0" x2="203.0" y2="400.0" stroke="black" stroke-width="0.5" />
    <text x="192.0" y="401.25" font-size="4" fill="black">-8</text>
    <line x1="197.0" y1="375.0" x2="203.0" y2="375.0" stroke="black" stroke-width="0.5" />
    <text x="192.0" y="376.25" font-size="4" fill="black">-7</text>
    <line x1="197.0" y1="350.0" x2="203.0" y2="350.0" stroke="black" stroke-width="0.5" />
    <text x="192.0" y="351.25" font-size="4" fill="black">-6</text>
    <line x1="197.0" y1="325.0" x2="203.0" y2="325.0" stroke="black" stroke-width="0.5" />
    <text x="192.0" y="326.25" font-size="4" fill="black">-5</text>
    <line x1="197.0" y1="300.0" x2="203.0" y2="300.0" stroke="black" stroke-width="0.5" />
    <text x="192.0" y="301.25" font-size="4" fill="black">-4</text>
    <line x1="197.0" y1="275.0" x2="203.0" y2="275.0" stroke="black" stroke-width="0.5" />
    <text x="192.0" y="276.25" font-size="4" fill="black">-3</text>
    <line x1="197.0" y1="250.0" x2="203.0" y2="250.0" stroke="black" stroke-width="0.5" />
    <text x="192.0" y="251.25" font-size="4" fill="black">-2</text>
    <line x1="197.0" y1="225.0" x2="203.0" y2="225.0" stroke="black" stroke-width="0.5" />
    <text x="192.0" y="226.25" font-size="4" fill="black">-1</text>
    <line x1="197.0" y1="200.0" x2="203.0" y2="200.0" stroke="black" stroke-width="0.5" />
    <text x="192.0" y="201.25" font-size="4" fill="black">0</text>
    <line x1="197.0" y1="175.0" x2="203.0" y2="175.0" stroke="black" stroke-width="0.5" />
    <text x="192.0" y="176.25" font-size="4" fill="black">1</text>
    <line x1="197.0" y1="150.0" x2="203.0" y2="150.0" stroke="black" stroke-width="0.5" />
    <text x="192.0" y="151.25" font-size="4" fill="black">2</text>
    <line x1="197.0" y1="125.0" x2="203.0" y2="125.0" stroke="black" stroke-width="0.5" />
    <text x="192.0" y="126.25" font-size="4" fill="black">3</text>
    <line x1="197.0" y1="100.0" x2="203.0" y2="100.0" stroke="black" stroke-width="0.5" />
    <text x="192.0" y="101.25" font-size="4" fill="black">4</text>
    <line x1="197.0" y1="75.0" x2="203.0" y2="75.0" stroke="black" stroke-width="0.5" />
    <text x="192.0" y="76.25" font-size="4" fill="black">5</text>
    <line x1="197.0" y1="50.0" x2="203.0" y2="50.0" stroke="black" stroke-width="0.5" />
    <text x="192.0" y="51.25" font-size="4" fill="black">6</text>
    <line x1="197.0" y1="25.0" x2="203.0" y2="25.0" stroke="black" stroke-width="0.5" />
    <text x="192.0" y="26.25" font-size="4" fill="black">7</text>
    <line x1="197.0" y1="0.0" x2="203.0" y2="0.0" stroke="black" stroke-width="0.5" />
    <text x="192.0" y="1.25" font-size="4" fill="black">8</text>
    <polyline points="0,250.0 0.5,249.75 1.0,249.5 1.5,249.25 2.0,249.0 2.5,248.75 3.0,248.5 3.5,248.25 4.0,248.0 4.5,247.75 5.0,247.5 5.5,247.25 6.0,247.0 6.5,246.75 7.0,246.5 7.5,246.25 8.0,246.0 8.5,245.75 9.0,245.5 9.5,245.25 10.0,245.0 10.5,244.75 11.0,244.5 11.5,244.25 12.0,244.0 12.5,243.75 13.0,243.5 13.5,243.25 14.0,243.0 14.5,242.75 15.0,242.5 15.5,242.25 16.0,242.0 16.5,241.75 17.0,241.5 17.5,241.25 18.0,241.0 18.5,240.75 19.0,240.5 19.5,240.25 20.0,240.0 20.5,239.75 21.0,239.5 21.5,239.25 22.0,239.0 22.5,238.75 23.0,238.5 23.5,238.25 24.0,238.0 24.5,237.75 25.0,237.5 25.5,237.25 26.0,237.0 26.5,236.75 27.0,236.5 27.5,236.25 28.0,236.0 28.5,235.75 29.0,235.5 29.5,235.25 30.0,235.0 30.5,234.75 31.0,234.5 31.5,234.25 32.0,234.0 32.5,233.75 33.0,233.5 33.5,233.25 34.0,233.0 34.5,232.75 35.0,232.5 35.5,232.25 36.0,232.0 36.5,231.75 37.0,231.5 37.5,231.25 38.0,231.0 38.5,230.75 39.0,230.5 39.5,230.25 40.0,230.0 40.5,229.75 41.0,229.5 41.5,229.25 42.0,229.0 42.5,228.75 43.0,228.5 43.5,228.25 44.0,228.0 44.5,227.75 45.0,227.5 45.5,227.25 46.0,227.0 46.5,226.75 47.0,226.5 47.5,226.25 48.0,226.0 48.5,225.75 49.0,225.5 49.5,225.25 50.0,225.0 50.5,224.75 51.0,224.5 51.5,224.25 52.0,224.0 52.5,223.75 53.0,223.5 53.5,223.25 54.0,223.0 54.5,222.75 55.0,222.5 55.5,222.25 56.0,222.0 56.5,221.75 57.0,221.5 57.5,221.25 58.0,221.0 58.5,220.75 59.0,220.5 59.5,220.25 60.0,220.0 60.5,219.75 61.0,219.5 61.5,219.25 62.0,219.0 62.5,218.75 63.0,218.5 63.5,218.25 64.0,218.0 64.5,217.75 65.0,217.5 65.5,217.25 66.0,217.0 66.5,216.75 67.0,216.5 67.5,216.25 68.0,216.0 68.5,215.75 69.0,215.5 69.5,215.25 70.0,215.0 70.5,214.75 71.0,214.5 71.5,214.25 72.0,214.0 72.5,213.75 73.0,213.5 73.5,213.25 74.0,213.0 74.5,212.75 75.0,212.5 75.5,212.25 76.0,212.0 76.5,211.75 77.0,211.5 77.5,211.25 78.0,211.0 78.5,210.75 79.0,210.5 79.5,210.25 80.0,210.0 80.5,209.75 81.0,209.5 81.5,209.25 82.0,209.0 82.5,208.75 83.0,208.5 83.5,208.25 84.0,208.0 84.5,207.75 85.0,207.5 85.5,207.25 86.0,207.0 86.5,206.75 87.0,206.5 87.5,206.25 88.0,206.0 88.5,205.75 89.0,205.5 89.5,205.25 90.0,205.0 90.5,204.75 91.0,204.5 91.5,204.25 92.0,204.0 92.5,203.75 93.0,203.5 93.5,203.25 94.0,203.0 94.5,202.75 95.0,202.5 95.5,202.25 96.0,202.0 96.5,201.75 97.0,201.5 97.5,201.25 98.0,201.0 98.5,200.75 99.0,200.5 99.5,200.25 100.0,200.0 100.5,199.75 101.0,199.5 101.5,199.25 102.0,199.0 102.5,198.75 103.0,198.5 103.5,198.25 104.0,198.0 104.5,197.75 105.0,197.5 105.5,197.25 106.0,197.0 106.5,196.75 107.0,196.5 107.5,196.25 108.0,196.0 108.5,195.75 109.0,195.5 109.5,195.25 110.0,195.0 110.5,194.75 111.0,194.5 111.5,194.25 112.0,194.0 112.5,193.75 113.0,193.5 113.5,193.25 114.0,193.0 114.5,192.75 115.0,192.5 115.5,192.25 116.0,192.0 116.5,191.75 117.0,191.5 117.5,191.25 118.0,191.0 118.5,190.75 119.0,190.5 119.5,190.25 120.0,190.0 120.5,189.75 121.0,189.5 121.5,189.25 122.0,189.0 122.5,188.75 123.0,188.5 123.5,188.25 124.0,188.0 124.5,187.75 125.0,187.5 125.5,187.25 126.0,187.0 126.5,186.75 127.0,186.5 127.5,186.25 128.0,186.0 128.5,185.75 129.0,185.5 129.5,185.25 130.0,185.0 130.5,184.75 131.0,184.5 131.5,184.25 132.0,184.0 132.5,183.75 133.0,183.5 133.5,183.25 134.0,183.0 134.5,182.75 135.0,182.5 135.5,182.25 136.0,182.0 136.5,181.75 137.0,181.5 137.5,181.25 138.0,181.0 138.5,180.75 139.0,180.5 139.5,180.25 140.0,180.0 140.5,179.75 141.0,179.5 141.5,179.25 142.0,179.0 142.5,178.75 143.0,178.5 143.5,178.25 144.0,178.0 144.5,177.75 145.0,177.5 145.5,177.25 146.0,177.0 146.5,176.75 147.0,176.5 147.5,176.25 148.0,176.0 148.5,175.75 149.0,175.5 149.5,175.25 150.0,175.0 150.5,174.75 151.0,174.5 151.5,174.25 152.0,174.0 152.5,173.75 153.0,173.5 153.5,173.25 154.0,173.0 154.5,172.75 155.0,172.5 155.5,172.25 156.0,172.0 156.5,171.75 157.0,171.5 157.5,171.25 158.0,171.0 158.5,170.75 159.0,170.5 159.5,170.25 160.0,170.0 160.5,169.75 161.0,169.5 161.5,169.25 162.0,169.0 162.5,168.75 163.0,168.5 163.5,168.25 164.0,168.0 164.5,167.75 165.0,167.5 165.5,167.25 166.0,167.0 166.5,166.75 167.0,166.5 167.5,166.25 168.0,166.0 168.5,165.75 169.0,165.5 169.5,165.25 170.0,165.0 170.5,164.75 171.0,164.5 171.5,164.25 172.0,164.0 172.5,163.75 173.0,163.5 173.5,163.25 174.0,163.0 174.5,162.75 175.0,162.5 175.5,162.25 176.0,162.0 176.5,161.75 177.0,161.5 177.5,161.25 178.0,161.0 178.5,160.75 179.0,160.5 179.5,160.25 180.0,160.0 180.5,159.75 181.0,159.5 181.5,159.25 182.0,159.0 182.5,158.75 183.0,158.5 183.5,158.25 184.0,158.0 184.5,157.75 185.0,157.5 185.5,157.25 186.0,157.0 186.5,156.75 187.0,156.5 187.5,156.25 188.0,156.0 188.5,155.75 189.0,155.5 189.5,155.25 190.0,155.0 190.5,154.75 191.0,154.5 191.5,154.25 192.0,154.0 192.5,153.75 193.0,153.5 193.5,153.25 194.0,153.0 194.5,152.75 195.0,152.5 195.5,152.25 196.0,152.0 196.5,151.75 197.0,151.5 197.5,151.25 198.0,151.0 198.5,150.75 199.0,150.5 199.5,150.25 200.0,150.0 200.5,149.75 201.0,149.5 201.5,149.25 202.0,149.0 202.5,148.75 203.0,148.5 203.5,148.25 204.0,148.0 204.5,147.75 205.0,147.5 205.5,147.25 206.0,147.0 206.5,146.75 207.0,146.5 207.5,146.25 208.0,146.0 208.5,145.75 209.0,145.5 209.5,145.25 210.0,145.0 210.5,144.75 211.0,144.5 211.5,144.25 212.0,144.0 212.5,143.75 213.0,143.5 213.5,143.25 214.0,143.0 214.5,142.75 215.0,142.5 215.5,142.25 216.0,142.0 216.5,141.75 217.0,141.5 217.5,141.25 218.0,141.0 218.5,140.75 219.0,140.5 219.5,140.25 220.0,140.0 220.5,139.75 221.0,139.5 221.5,139.25 222.0,139.0 222.5,138.75 223.0,138.5 223.5,138.25 224.0,138.0 224.5,137.75 225.0,137.5 225.5,137.25 226.0,137.0 226.5,136.75 227.0,136.5 227.5,136.25 228.0,136.0 228.5,135.75 229.0,135.5 229.5,135.25 230.0,135.0 230.5,134.75 231.0,134.5 231.5,134.25 232.0,134.0 232.5,133.75 233.0,133.5 233.5,133.25 234.0,133.0 234.5,132.75 235.0,132.5 235.5,132.25 236.0,132.0 236.5,131.75 237.0,131.5 237.5,131.25 238.0,131.0 238.5,130.75 239.0,130.5 239.5,130.25 240.0,130.0 240.5,129.75 241.0,129.5 241.5,129.25 242.0,129.0 242.5,128.75 243.0,128.5 243.5,128.25 244.0,128.0 244.5,127.75 245.0,127.5 245.5,127.25 246.0,127.0 246.5,126.75 247.0,126.5 247.5,126.25 248.0,126.0 248.5,125.75 249.0,125.5 249.5,125.25 250.0,125.0 250.5,124.75 251.0,124.5 251.5,124.25 252.0,124.0 252.5,123.75 253.0,123.5 253.5,123.25 254.0,123.0 254.5,122.75 255.0,122.5 255.5,122.24999999999999 256.0,122.0 256.5,121.75 257.0,121.50000000000001 257.5,121.25 258.0,121.0 258.5,120.75 259.0,120.5 259.5,120.25 260.0,120.0 260.5,119.75 261.0,119.5 261.5,119.25 262.0,119.0 262.5,118.75 263.0,118.5 263.5,118.25 264.0,118.0 264.5,117.75 265.0,117.5 265.5,117.25 266.0,117.0 266.5,116.75 267.0,116.5 267.5,116.25 268.0,115.99999999999999 268.5,115.75 269.0,115.5 269.5,115.25000000000001 270.0,115.0 270.5,114.75 271.0,114.5 271.5,114.25 272.0,114.0 272.5,113.75 273.0,113.5 273.5,113.25 274.0,113.0 274.5,112.75 275.0,112.5 275.5,112.25 276.0,112.0 276.5,111.75 277.0,111.5 277.5,111.25 278.0,111.0 278.5,110.75 279.0,110.5 279.5,110.25 280.0,110.0 280.5,109.74999999999999 281.0,109.5 281.5,109.25 282.0,109.00000000000001 282.5,108.75 283.0,108.5 283.5,108.25 284.0,108.0 284.5,107.75 285.0,107.5 285.5,107.25 286.0,107.0 286.5,106.75 287.0,106.5 287.5,106.25 288.0,106.0 288.5,105.75 289.0,105.5 289.5,105.25 290.0,105.0 290.5,104.75 291.0,104.5 291.5,104.25 292.0,104.0 292.5,103.75 293.0,103.49999999999999 293.5,103.25 294.0,103.0 294.5,102.75000000000001 295.0,102.5 295.5,102.25 296.0,102.0 296.5,101.75 297.0,101.5 297.5,101.25 298.0,101.0 298.5,100.75 299.0,100.5 299.5,100.25 300.0,100.0 300.5,99.75 301.0,99.50000000000001 301.5,99.25000000000001 302.0,99.0 302.5,98.75 303.0,98.49999999999999 303.5,98.25 304.0,98.0 304.5,97.75 305.0,97.50000000000001 305.5,97.25000000000001 306.0,97.0 306.5,96.75 307.0,96.49999999999999 307.5,96.24999999999999 308.0,96.0 308.5,95.75 309.0,95.5 309.5,95.25000000000001 310.0,95.0 310.5,94.75 311.0,94.49999999999999 311.5,94.24999999999999 312.0,94.0 312.5,93.75 313.0,93.5 313.5,93.25000000000001 314.0,93.00000000000001 314.5,92.75 315.0,92.5 315.5,92.24999999999999 316.0,92.0 316.5,91.75 317.0,91.5 317.5,91.25000000000001 318.0,91.00000000000001 318.5,90.75 319.0,90.5 319.5,90.24999999999999 320.0,89.99999999999999 320.5,89.75 321.0,89.5 321.5,89.25 322.0,89.00000000000001 322.5,88.75 323.0,88.5 323.5,88.24999999999999 324.0,87.99999999999999 324.5,87.75 325.0,87.5 325.5,87.25 326.0,87.00000000000001 326.5,86.75000000000001 327.0,86.5 327.5,86.25 328.0,85.99999999999999 328.5,85.75 329.0,85.5 329.5,85.25 330.0,85.00000000000001 330.5,84.75000000000001 331.0,84.5 331.5,84.25 332.0,83.99999999999999 332.5,83.74999999999999 333.0,83.5 333.5,83.25 334.0,83.0 334.5,82.75000000000001 335.0,82.5 335.5,82.25 336.0,81.99999999999999 336.5,81.74999999999999 337.0,81.5 337.5,81.25 338.0,81.0 338.5,80.75000000000001 339.0,80.50000000000001 339.5,80.25 340.0,80.0 340.5,79.74999999999999 341.0,79.5 341.5,79.25 342.0,79.0 342.5,78.75000000000001 343.0,78.50000000000001 343.5,78.25 344.0,78.0 344.5,77.74999999999999 345.0,77.49999999999999 345.5,77.25 346.0,77.0 346.5,76.75 347.0,76.50000000000001 347.5,76.25 348.0,76.0 348.5,75.74999999999999 349.0,75.49999999999999 349.5,75.25 350.0,75.0 350.5,74.75 351.0,74.50000000000001 351.5,74.25000000000001 352.0,74.0 352.5,73.75 353.0,73.49999999999999 353.5,73.25 354.0,73.0 354.5,72.75 355.0,72.50000000000001 355.5,72.25000000000001 356.0,72.0 356.5,71.75 357.0,71.5 357.5,71.25 358.0,71.0 358.5,70.75 359.0,70.5 359.5,70.25 360.0,70.0 360.5,69.75 361.0,69.49999999999997 361.5,69.25 362.0,69.0 362.5,68.75 363.0,68.5 363.5,68.25 364.0,68.00000000000003 364.5,67.75 365.0,67.5 365.5,67.25 366.0,67.0 366.5,66.75 367.0,66.5 367.5,66.25 368.0,66.0 368.5,65.75 369.0,65.5 369.5,65.25 370.0,65.0 370.5,64.75 371.0,64.5 371.5,64.25 372.0,64.0 372.5,63.75 373.0,63.5 373.5,63.24999999999997 374.0,63.0 374.5,62.75 375.0,62.5 375.5,62.25 376.0,62.0 376.5,61.75000000000003 377.0,61.5 377.5,61.25 378.0,61.0 378.5,60.75 379.0,60.5 379.5,60.25 380.0,60.0 380.5,59.75 381.0,59.5 381.5,59.25 382.0,59.0 382.5,58.75 383.0,58.5 383.5,58.25 384.0,58.0 384.5,57.75 385.0,57.5 385.5,57.25 386.0,56.99999999999997 386.5,56.75 387.0,56.5 387.5,56.25 388.0,56.0 388.5,55.75 389.0,55.50000000000003 389.5,55.25 390.0,55.0 390.5,54.75 391.0,54.5 391.5,54.25 392.0,54.0 392.5,53.75 393.0,53.5 393.5,53.25 394.0,53.0 394.5,52.75 395.0,52.5 395.5,52.25 396.0,52.0 396.5,51.75 397.0,51.5 397.5,51.25 398.0,51.0 398.5,50.74999999999997 399.0,50.5 399.5,50.25 400.0,50.0" fill="none" stroke="pink" stroke-width="1" />
    <polyline points="0,-100.0 0.5,-99.5 1.0,-99.0 1.5,-98.50000000000006 2.0,-98.0 2.5,-97.5 3.0,-97.0 3.5,-96.5 4.0,-96.0 4.5,-95.5 5.0,-95.0 5.5,-94.5 6.0,-94.0 6.5,-93.5 7.0,-93.0 7.5,-92.5 8.0,-92.0 8.5,-91.5 9.0,-91.0 9.5,-90.5 10.0,-90.0 10.5,-89.5 11.0,-88.99999999999994 11.5,-88.5 12.0,-88.0 12.5,-87.5 13.0,-87.0 13.5,-86.5 14.0,-86.00000000000006 14.5,-85.5 15.0,-85.0 15.5,-84.5 16.0,-84.0 16.5,-83.5 17.0,-83.0 17.5,-82.5 18.0,-82.0 18.5,-81.5 19.0,-81.0 19.5,-80.5 20.0,-80.0 20.5,-79.5 21.0,-79.0 21.5,-78.5 22.0,-78.0 22.5,-77.5 23.0,-77.0 23.5,-76.49999999999994 24.0,-76.0 24.5,-75.5 25.0,-75.0 25.5,-74.5 26.0,-74.0 26.5,-73.50000000000006 27.0,-73.0 27.5,-72.5 28.0,-72.0 28.5,-71.5 29.0,-71.0 29.5,-70.5 30.0,-70.0 30.5,-69.5 31.0,-69.0 31.5,-68.5 32.0,-68.0 32.5,-67.5 33.0,-67.0 33.5,-66.5 34.0,-66.0 34.5,-65.5 35.0,-65.0 35.5,-64.5 36.0,-63.99999999999994 36.5,-63.5 37.0,-63.0 37.5,-62.5 38.0,-62.0 38.5,-61.5 39.0,-61.00000000000006 39.5,-60.5 40.0,-60.0 40.5,-59.5 41.0,-59.0 41.5,-58.5 42.0,-58.0 42.5,-57.5 43.0,-57.0 43.5,-56.5 44.0,-56.0 44.5,-55.49999999999997 45.0,-54.99999999999997 45.5,-54.5 46.0,-54.0 46.5,-53.5 47.0,-53.00000000000003 47.5,-52.5 48.0,-52.0 48.5,-51.49999999999997 49.0,-50.99999999999997 49.5,-50.5 50.0,-50.0 50.5,-49.5 51.0,-49.00000000000003 51.5,-48.50000000000003 52.0,-48.0 52.5,-47.5 53.0,-46.99999999999997 53.5,-46.5 54.0,-46.0 54.5,-45.5 55.0,-45.00000000000003 55.5,-44.50000000000003 56.0,-44.0 56.5,-43.5 57.0,-42.99999999999997 57.5,-42.49999999999997 58.0,-42.0 58.5,-41.5 59.0,-41.0 59.5,-40.50000000000003 60.0,-40.0 60.5,-39.5 61.0,-38.99999999999997 61.5,-38.49999999999997 62.0,-38.0 62.5,-37.5 63.0,-37.0 63.5,-36.50000000000003 64.0,-36.00000000000003 64.5,-35.5 65.0,-35.0 65.5,-34.49999999999997 66.0,-34.0 66.5,-33.5 67.0,-33.0 67.5,-32.50000000000003 68.0,-32.00000000000003 68.5,-31.5 69.0,-31.0 69.5,-30.49999999999997 70.0,-29.99999999999997 70.5,-29.5 71.0,-29.0 71.5,-28.5 72.0,-28.00000000000003 72.5,-27.5 73.0,-27.0 73.5,-26.49999999999997 74.0,-25.99999999999997 74.5,-25.5 75.0,-25.0 75.5,-24.5 76.0,-24.00000000000003 76.5,-23.50000000000003 77.0,-23.0 77.5,-22.5 78.0,-21.99999999999997 78.5,-21.5 79.0,-21.0 79.5,-20.5 80.0,-20.00000000000003 80.5,-19.50000000000003 81.0,-19.0 81.5,-18.5 82.0,-17.99999999999997 82.5,-17.49999999999997 83.0,-17.0 83.5,-16.5 84.0,-16.0 84.5,-15.500000000000028 85.0,-15.0 85.5,-14.5 86.0,-13.999999999999972 86.5,-13.499999999999972 87.0,-13.0 87.5,-12.5 88.0,-12.0 88.5,-11.500000000000028 89.0,-11.000000000000028 89.5,-10.5 90.0,-10.0 90.5,-9.499999999999972 91.0,-9.0 91.5,-8.5 92.0,-8.0 92.5,-7.500000000000028 93.0,-7.000000000000028 93.5,-6.5 94.0,-6.0 94.5,-5.499999999999972 95.0,-4.999999999999972 95.5,-4.5 96.0,-4.0 96.5,-3.5 97.0,-3.0000000000000284 97.5,-2.5 98.0,-2.0 98.5,-1.4999999999999716 99.0,-0.9999999999999716 99.5,-0.5 100.0,0.0 100.5,0.5 101.0,1.0 101.5,1.5 102.0,2.0 102.5,2.5 103.0,3.0 103.5,3.5 104.0,4.0 104.5,4.5 105.0,5.0 105.5,5.500000000000028 106.0,6.0 106.5,6.5 107.0,6.999999999999972 107.5,7.5 108.0,8.0 108.5,8.5 109.0,9.0 109.5,9.5 110.0,10.0 110.5,10.5 111.0,11.0 111.5,11.5 112.0,12.0 112.5,12.5 113.0,13.0 113.5,13.5 114.0,14.0 114.5,14.5 115.0,15.0 115.5,15.5 116.0,16.0 116.5,16.5 117.0,17.0 117.5,17.5 118.0,18.00000000000003 118.5,18.5 119.0,19.0 119.5,19.49999999999997 120.0,20.0 120.5,20.5 121.0,21.0 121.5,21.5 122.0,22.0 122.5,22.5 123.0,23.0 123.5,23.5 124.0,24.0 124.5,24.5 125.0,25.0 125.5,25.5 126.0,26.0 126.5,26.5 127.0,27.0 127.5,27.5 128.0,28.0 128.5,28.5 129.0,29.0 129.5,29.5 130.0,30.0 130.5,30.50000000000003 131.0,31.0 131.5,31.5 132.0,31.99999999999997 132.5,32.5 133.0,33.0 133.5,33.5 134.0,34.0 134.5,34.5 135.0,35.0 135.5,35.5 136.0,36.0 136.5,36.5 137.0,37.0 137.5,37.5 138.0,38.0 138.5,38.5 139.0,39.0 139.5,39.5 140.0,40.0 140.5,40.5 141.0,41.0 141.5,41.5 142.0,42.0 142.5,42.5 143.0,43.00000000000003 143.5,43.5 144.0,44.0 144.5,44.49999999999997 145.0,45.0 145.5,45.5 146.0,46.0 146.5,46.5 147.0,47.0 147.5,47.5 148.0,48.0 148.5,48.5 149.0,49.0 149.5,49.5 150.0,50.0 150.5,50.5 151.0,51.0 151.5,51.5 152.0,52.0 152.5,52.5 153.0,53.0 153.5,53.5 154.0,54.0 154.5,54.5 155.0,55.0 155.5,55.5 156.0,56.0 156.5,56.5 157.0,57.0 157.5,57.5 158.0,58.0 158.5,58.5 159.0,59.0 159.5,59.5 160.0,60.0 160.5,60.5 161.0,61.0 161.5,61.5 162.0,62.0 162.5,62.5 163.0,63.0 163.5,63.5 164.0,64.0 164.5,64.5 165.0,65.0 165.5,65.5 166.0,66.0 166.5,66.5 167.0,67.0 167.5,67.5 168.0,68.0 168.5,68.5 169.0,69.0 169.5,69.5 170.0,70.0 170.5,70.5 171.0,71.0 171.5,71.5 172.0,72.0 172.5,72.50000000000001 173.0,73.0 173.5,73.49999999999999 174.0,74.0 174.5,74.50000000000001 175.0,75.0 175.5,75.49999999999999 176.0,76.0 176.5,76.50000000000001 177.0,77.0 177.5,77.49999999999999 178.0,78.0 178.5,78.49999999999999 179.0,79.0 179.5,79.5 180.0,80.0 180.5,80.5 181.0,81.0 181.5,81.5 182.0,82.0 182.5,82.5 183.0,83.0 183.5,83.5 184.0,84.00000000000001 184.5,84.5 185.0,85.00000000000001 185.5,85.5 186.0,85.99999999999999 186.5,86.5 187.0,87.00000000000001 187.5,87.5 188.0,87.99999999999999 188.5,88.5 189.0,88.99999999999999 189.5,89.5 190.0,89.99999999999999 190.5,90.5 191.0,90.99999999999999 191.5,91.5 192.0,92.0 192.5,92.5 193.0,93.0 193.5,93.5 194.0,94.0 194.5,94.5 195.0,95.0 195.5,95.5 196.0,96.0 196.5,96.50000000000001 197.0,97.0 197.5,97.50000000000001 198.0,98.0 198.5,98.50000000000001 199.0,99.0 199.5,99.50000000000001 200.0,100.0 200.5,100.5 201.0,101.0 201.5,101.5 202.0,102.0 202.5,102.5 203.0,103.0 203.5,103.5 204.0,104.0 204.5,104.5 205.0,105.0 205.5,105.5 206.0,106.0 206.5,106.5 207.0,107.0 207.5,107.5 208.0,108.0 208.5,108.5 209.0,109.0 209.5,109.5 210.0,110.0 210.5,110.5 211.0,111.0 211.5,111.5 212.0,112.0 212.5,112.5 213.0,113.0 213.5,113.5 214.0,114.0 214.5,114.5 215.0,115.0 215.5,115.5 216.0,116.0 216.5,116.5 217.0,117.0 217.5,117.5 218.0,118.0 218.5,118.5 219.0,119.0 219.5,119.5 220.0,120.0 220.5,120.5 221.0,121.0 221.5,121.5 222.0,122.0 222.5,122.5 223.0,123.0 223.5,123.5 224.0,124.0 224.5,124.5 225.0,125.0 225.5,125.5 226.0,126.0 226.5,126.5 227.0,127.0 227.5,127.5 228.0,128.0 228.5,128.5 229.0,129.0 229.5,129.5 230.0,130.0 230.5,130.5 231.0,131.0 231.5,131.5 232.0,132.0 232.5,132.5 233.0,133.0 233.5,133.5 234.0,134.0 234.5,134.5 235.0,135.0 235.5,135.5 236.0,136.0 236.5,136.5 237.0,137.0 237.5,137.5 238.0,138.0 238.5,138.5 239.0,139.0 239.5,139.5 240.0,140.0 240.5,140.5 241.0,141.0 241.5,141.5 242.0,142.0 242.5,142.5 243.0,143.0 243.5,143.5 244.0,144.0 244.5,144.5 245.0,145.0 245.5,145.5 246.0,146.0 246.5,146.5 247.0,147.0 247.5,147.5 248.0,148.0 248.5,148.5 249.0,149.0 249.5,149.5 250.0,150.0 250.5,150.5 251.0,151.0 251.5,151.5 252.0,152.0 252.5,152.5 253.0,153.0 253.5,153.5 254.0,154.0 254.5,154.5 255.0,155.0 255.5,155.5 256.0,156.0 256.5,156.5 257.0,157.0 257.5,157.5 258.0,158.0 258.5,158.5 259.0,159.0 259.5,159.5 260.0,160.0 260.5,160.5 261.0,161.0 261.5,161.5 262.0,162.0 262.5,162.5 263.0,163.0 263.5,163.5 264.0,164.0 264.5,164.5 265.0,165.0 265.5,165.5 266.0,166.0 266.5,166.5 267.0,167.0 267.5,167.5 268.0,168.0 268.5,168.5 269.0,169.0 269.5,169.5 270.0,170.0 270.5,170.5 271.0,171.0 271.5,171.5 272.0,172.0 272.5,172.5 273.0,173.0 273.5,173.5 274.0,174.0 274.5,174.5 275.0,175.0 275.5,175.5 276.0,176.0 276.5,176.5 277.0,177.0 277.5,177.5 278.0,178.0 278.5,178.5 279.0,179.0 279.5,179.5 280.0,180.0 280.5,180.5 281.0,181.0 281.5,181.5 282.0,182.0 282.5,182.5 283.0,183.0 283.5,183.5 284.0,184.0 284.5,184.5 285.0,185.0 285.5,185.5 286.0,186.0 286.5,186.5 287.0,187.0 287.5,187.5 288.0,188.0 288.5,188.5 289.0,189.0 289.5,189.5 290.0,190.0 290.5,190.5 291.0,191.0 291.5,191.5 292.0,192.0 292.5,192.5 293.0,193.0 293.5,193.5 294.0,194.0 294.5,194.5 295.0,195.0 295.5,195.5 296.0,196.0 296.5,196.5 297.0,197.0 297.5,197.5 298.0,198.0 298.5,198.5 299.0,199.0 299.5,199.5 300.0,200.0 300.5,200.5 301.0,201.0 301.5,201.5 302.0,202.0 302.5,202.5 303.0,203.0 303.5,203.5 304.0,204.0 304.5,204.5 305.0,205.0 305.5,205.5 306.0,206.0 306.5,206.5 307.0,207.0 307.5,207.5 308.0,208.0 308.5,208.5 309.0,209.0 309.5,209.5 310.0,210.0 310.5,210.5 311.0,211.0 311.5,211.5 312.0,212.0 312.5,212.5 313.0,213.0 313.5,213.5 314.0,214.0 314.5,214.5 315.0,215.0 315.5,215.5 316.0,216.0 316.5,216.5 317.0,217.0 317.5,217.5 318.0,218.0 318.5,218.5 319.0,219.0 319.5,219.5 320.0,220.0 320.5,220.5 321.0,221.0 321.5,221.5 322.0,222.0 322.5,222.5 323.0,223.0 323.5,223.5 324.0,224.0 324.5,224.5 325.0,225.0 325.5,225.5 326.0,226.0 326.5,226.5 327.0,227.0 327.5,227.5 328.0,228.0 328.5,228.5 329.0,229.0 329.5,229.5 330.0,230.0 330.5,230.5 331.0,231.0 331.5,231.5 332.0,232.0 332.5,232.5 333.0,233.0 333.5,233.5 334.0,234.0 334.5,234.5 335.0,235.0 335.5,235.5 336.0,236.0 336.5,236.5 337.0,237.0 337.5,237.5 338.0,238.0 338.5,238.5 339.0,239.0 339.5,239.5 340.0,240.0 340.5,240.5 341.0,241.0 341.5,241.5 342.0,242.0 342.5,242.5 343.0,243.0 343.5,243.5 344.0,244.0 344.5,244.5 345.0,245.0 345.5,245.5 346.0,246.0 346.5,246.5 347.0,247.0 347.5,247.5 348.0,248.0 348.5,248.5 349.0,249.0 349.5,249.5 350.0,250.0 350.5,250.5 351.0,251.0 351.5,251.5 352.0,252.0 352.5,252.5 353.0,253.0 353.5,253.5 354.0,254.0 354.5,254.5 355.0,255.0 355.5,255.5 356.0,256.0 356.5,256.5 357.0,257.0 357.5,257.5 358.0,258.0 358.5,258.5 359.0,259.0 359.5,259.5 360.0,260.0 360.5,260.5 361.0,261.0 361.5,261.5 362.0,262.0 362.5,262.5 363.0,263.0 363.5,263.5 364.0,264.0 364.5,264.5 365.0,265.0 365.5,265.5 366.0,266.0 366.5,266.5 367.0,267.0 367.5,267.5 368.0,268.0 368.5,268.5 369.0,269.0 369.5,269.5 370.0,270.0 370.5,270.5 371.0,271.0 371.5,271.5 372.0,272.0 372.5,272.5 373.0,273.0 373.5,273.5 374.0,274.0 374.5,274.5 375.0,275.0 375.5,275.5 376.0,276.0 376.5,276.5 377.0,277.0 377.5,277.5 378.0,278.0 378.5,278.5 379.0,279.0 379.5,279.5 380.0,280.0 380.5,280.5 381.0,281.0 381.5,281.5 382.0,282.0 382.5,282.5 383.0,283.0 383.5,283.5 384.0,284.0 384.5,284.5 385.0,285.0 385.5,285.5 386.0,286.0 386.5,286.5 387.0,287.0 387.5,287.5 388.0,288.0 388.5,288.5 389.0,289.0 389.5,289.5 390.0,290.0 390.5,290.5 391.0,291.0 391.5,291.5 392.0,292.0 392.5,292.5 393.0,293.0 393.5,293.5 394.0,294.0 394.5,294.5 395.0,295.0 395.5,295.5 396.0,296.0 396.5,296.5 397.0,297.0 397.5,297.5 398.0,298.0 398.5,298.5 399.0,299.0 399.5,299.5 400.0,300.0" fill="none" stroke="blue" stroke-width="1" />
    <polyline points="0,700.0 0.5,699.0 1.0,698.0 1.5,697.0 2.0,696.0 2.5,695.0 3.0,694.0 3.5,693.0 4.0,692.0 4.5,691.0 5.0,690.0 5.5,689.0 6.0,688.0 6.5,687.0 7.0,686.0 7.5,685.0 8.0,684.0 8.5,683.0 9.0,682.0 9.5,681.0 10.0,680.0 10.5,679.0 11.0,678.0 11.5,677.0 12.0,676.0 12.5,675.0 13.0,674.0 13.5,673.0 14.0,672.0 14.5,671.0 15.0,670.0 15.5,669.0 16.0,668.0 16.5,667.0 17.0,666.0 17.5,665.0 18.0,664.0 18.5,663.0 19.0,662.0 19.5,661.0 20.0,660.0 20.5,659.0 21.0,658.0 21.5,657.0 22.0,656.0 22.5,655.0 23.0,654.0 23.5,653.0 24.0,652.0 24.5,651.0 25.0,650.0 25.5,649.0 26.0,648.0 26.5,647.0 27.0,646.0 27.5,645.0 28.0,644.0 28.5,643.0 29.0,642.0 29.5,641.0 30.0,640.0 30.5,639.0 31.0,638.0 31.5,637.0 32.0,636.0 32.5,635.0 33.0,634.0 33.5,633.0 34.0,632.0 34.5,631.0 35.0,630.0 35.5,629.0 36.0,628.0 36.5,627.0 37.0,626.0 37.5,625.0 38.0,624.0 38.5,623.0 39.0,622.0 39.5,621.0 40.0,620.0 40.5,619.0 41.0,618.0 41.5,617.0 42.0,616.0 42.5,615.0 43.0,614.0 43.5,613.0 44.0,612.0 44.5,611.0 45.0,610.0 45.5,609.0 46.0,608.0 46.5,607.0 47.0,606.0 47.5,605.0 48.0,604.0 48.5,603.0 49.0,602.0 49.5,601.0 50.0,600.0 50.5,599.0 51.0,598.0 51.5,597.0 52.0,596.0 52.5,595.0 53.0,594.0 53.5,593.0 54.0,592.0 54.5,591.0 55.0,590.0 55.5,589.0 56.0,588.0 56.5,587.0 57.0,586.0 57.5,585.0 58.0,584.0 58.5,583.0 59.0,582.0 59.5,581.0 60.0,580.0 60.5,579.0 61.0,578.0 61.5,577.0 62.0,576.0 62.5,575.0 63.0,574.0 63.5,573.0 64.0,572.0 64.5,571.0 65.0,570.0 65.5,569.0 66.0,568.0 66.5,567.0 67.0,566.0 67.5,565.0 68.0,564.0 68.5,563.0 69.0,562.0 69.5,561.0 70.0,560.0 70.5,559.0 71.0,558.0 71.5,557.0 72.0,556.0 72.5,555.0 73.0,554.0 73.5,553.0 74.0,552.0 74.5,551.0 75.0,550.0 75.5,549.0 76.0,548.0 76.5,547.0 77.0,546.0 77.5,545.0 78.0,544.0 78.5,543.0 79.0,542.0 79.5,541.0 80.0,540.0 80.5,539.0 81.0,538.0 81.5,537.0 82.0,536.0 82.5,535.0 83.0,534.0 83.5,533.0 84.0,532.0 84.5,531.0 85.0,530.0 85.5,529.0 86.0,528.0 86.5,527.0 87.0,526.0 87.5,525.0 88.0,524.0 88.5,523.0 89.0,522.0 89.5,521.0 90.0,520.0 90.5,519.0 91.0,518.0 91.5,517.0 92.0,516.0 92.5,515.0 93.0,514.0 93.5,513.0 94.0,512.0 94.5,511.0 95.0,510.0 95.5,509.0 96.0,508.0 96.5,507.0 97.0,506.0 97.5,505.0 98.0,504.0 98.5,503.0 99.0,502.0 99.5,501.0 100.0,500.0 100.5,499.0 101.0,498.0 101.5,497.0 102.0,496.0 102.5,495.0 103.0,494.0 103.5,493.0 104.0,492.0 104.5,491.0 105.0,490.0 105.5,488.99999999999994 106.0,488.0 106.5,487.0 107.0,486.00000000000006 107.5,485.0 108.0,484.0 108.5,483.0 109.0,482.0 109.5,481.0 110.0,480.0 110.5,479.0 111.0,478.0 111.5,477.0 112.0,476.0 112.5,475.0 113.0,474.0 113.5,473.0 114.0,472.0 114.5,471.0 115.0,470.0 115.5,469.0 116.0,468.0 116.5,467.0 117.0,466.0 117.5,465.0 118.0,463.99999999999994 118.5,463.0 119.0,462.0 119.5,461.00000000000006 120.0,460.0 120.5,459.0 121.0,458.0 121.5,457.0 122.0,456.0 122.5,455.0 123.0,454.0 123.5,453.0 124.0,452.0 124.5,451.0 125.0,450.0 125.5,449.0 126.0,448.0 126.5,447.0 127.0,446.0 127.5,445.0 128.0,444.0 128.5,443.0 129.0,442.0 129.5,441.0 130.0,440.0 130.5,439.0 131.0,438.0 131.5,437.0 132.0,436.0 132.5,435.0 133.0,434.0 133.5,433.0 134.0,432.0 134.5,431.0 135.0,430.0 135.5,429.0 136.0,428.0 136.5,427.0 137.0,426.0 137.5,425.0 138.0,424.0 138.5,423.0 139.0,422.0 139.5,421.0 140.0,420.0 140.5,419.0 141.0,418.0 141.5,417.0 142.0,416.0 142.5,415.0 143.0,414.0 143.5,413.0 144.0,412.0 144.5,411.0 145.0,410.0 145.5,409.0 146.0,408.0 146.5,407.0 147.0,406.0 147.5,405.0 148.0,404.0 148.5,403.0 149.0,402.0 149.5,401.0 150.0,400.0 150.5,399.0 151.0,398.0 151.5,397.0 152.0,396.0 152.5,395.0 153.0,394.0 153.5,393.0 154.0,392.0 154.5,391.0 155.0,390.0 155.5,389.0 156.0,388.0 156.5,387.0 157.0,386.0 157.5,385.0 158.0,384.0 158.5,383.0 159.0,382.0 159.5,381.0 160.0,380.0 160.5,379.0 161.0,378.0 161.5,377.0 162.0,376.0 162.5,375.0 163.0,374.0 163.5,373.0 164.0,372.0 164.5,371.0 165.0,370.0 165.5,369.0 166.0,368.0 166.5,367.0 167.0,366.0 167.5,365.0 168.0,364.0 168.5,363.0 169.0,362.0 169.5,361.0 170.0,360.0 170.5,359.0 171.0,358.0 171.5,357.0 172.0,356.0 172.5,355.0 173.0,354.0 173.5,353.0 174.0,352.0 174.5,351.0 175.0,350.0 175.5,349.0 176.0,348.0 176.5,347.0 177.0,346.0 177.5,345.0 178.0,344.0 178.5,343.0 179.0,342.0 179.5,341.0 180.0,340.0 180.5,339.0 181.0,338.0 181.5,337.0 182.0,336.0 182.5,335.0 183.0,334.0 183.5,333.0 184.0,332.0 184.5,331.0 185.0,330.0 185.5,329.0 186.0,328.0 186.5,327.0 187.0,326.0 187.5,325.0 188.0,324.0 188.5,323.0 189.0,322.0 189.5,321.0 190.0,320.0 190.5,319.0 191.0,318.0 191.5,317.0 192.0,316.0 192.5,315.0 193.0,314.0 193.5,313.0 194.0,312.0 194.5,311.0 195.0,310.0 195.5,309.0 196.0,308.0 196.5,307.0 197.0,306.0 197.5,305.0 198.0,304.0 198.5,303.0 199.0,302.0 199.5,301.0 200.0,300.0 200.5,299.0 201.0,298.0 201.5,297.0 202.0,296.0 202.5,295.0 203.0,294.0 203.5,293.0 204.0,292.0 204.5,291.0 205.0,290.0 205.5,289.0 206.0,288.0 206.5,287.0 207.0,286.0 207.5,285.0 208.0,284.0 208.5,283.0 209.0,282.0 209.5,281.0 210.0,280.0 210.5,279.0 211.0,278.0 211.5,277.0 212.0,276.0 212.5,275.0 213.0,274.0 213.5,273.0 214.0,272.0 214.5,271.0 215.0,270.0 215.5,269.0 216.0,268.0 216.5,267.0 217.0,266.0 217.5,265.0 218.0,264.0 218.5,263.0 219.0,262.0 219.5,261.0 220.0,260.0 220.5,259.0 221.0,258.0 221.5,257.0 222.0,256.0 222.5,255.0 223.0,254.0 223.5,253.0 224.0,252.0 224.5,251.0 225.0,250.0 225.5,249.0 226.0,248.0 226.5,247.0 227.0,246.0 227.5,245.0 228.0,244.0 228.5,243.0 229.0,242.0 229.5,241.0 230.0,240.0 230.5,239.0 231.0,238.0 231.5,237.0 232.0,236.0 232.5,235.0 233.0,234.0 233.5,233.0 234.0,232.0 234.5,231.0 235.0,230.0 235.5,229.0 236.0,228.0 236.5,227.0 237.0,226.0 237.5,225.0 238.0,224.0 238.5,223.0 239.0,222.0 239.5,221.0 240.0,220.0 240.5,219.0 241.0,218.0 241.5,217.0 242.0,216.0 242.5,215.0 243.0,214.0 243.5,213.0 244.0,212.0 244.5,211.0 245.0,210.0 245.5,209.0 246.0,208.0 246.5,207.0 247.0,206.0 247.5,205.0 248.0,204.0 248.5,203.0 249.0,202.0 249.5,201.0 250.0,200.0 250.5,199.0 251.0,198.0 251.5,197.0 252.0,196.0 252.5,195.0 253.0,194.0 253.5,193.0 254.0,192.0 254.5,191.0 255.0,190.0 255.5,189.0 256.0,188.0 256.5,187.0 257.0,186.0 257.5,185.0 258.0,184.0 258.5,183.0 259.0,182.0 259.5,181.0 260.0,180.0 260.5,179.0 261.0,178.0 261.5,177.0 262.0,176.0 262.5,175.0 263.0,174.0 263.5,173.0 264.0,172.0 264.5,171.0 265.0,170.0 265.5,169.0 266.0,168.0 266.5,167.0 267.0,166.0 267.5,165.0 268.0,164.0 268.5,163.0 269.0,162.0 269.5,161.0 270.0,160.0 270.5,159.0 271.0,158.0 271.5,157.0 272.0,156.0 272.5,155.0 273.0,154.0 273.5,153.0 274.0,152.0 274.5,151.0 275.0,150.0 275.5,149.0 276.0,148.0 276.5,147.0 277.0,146.0 277.5,145.0 278.0,144.0 278.5,143.0 279.0,142.0 279.5,141.0 280.0,140.0 280.5,139.0 281.0,138.0 281.5,137.0 282.0,136.0 282.5,135.0 283.0,134.0 283.5,133.0 284.0,132.0 284.5,131.0 285.0,130.0 285.5,129.0 286.0,128.0 286.5,127.0 287.0,126.0 287.5,125.0 288.0,124.0 288.5,123.0 289.0,122.0 289.5,121.0 290.0,120.0 290.5,119.0 291.0,118.0 291.5,117.0 292.0,115.99999999999999 292.5,114.99999999999999 293.0,113.99999999999999 293.5,112.99999999999999 294.0,112.00000000000001 294.5,111.00000000000001 295.0,110.00000000000001 295.5,109.00000000000001 296.0,108.0 296.5,107.0 297.0,106.0 297.5,105.0 298.0,104.0 298.5,103.0 299.0,102.0 299.5,101.0 300.0,100.0 300.5,99.00000000000003 301.0,98.0 301.5,97.00000000000001 302.0,96.0 302.5,95.00000000000001 303.0,94.0 303.5,93.00000000000001 304.0,92.0 304.5,91.00000000000001 305.0,89.99999999999999 305.5,89.00000000000001 306.0,87.99999999999999 306.5,87.00000000000001 307.0,85.99999999999999 307.5,85.00000000000001 308.0,83.99999999999999 308.5,83.0 309.0,81.99999999999999 309.5,81.0 310.0,79.99999999999999 310.5,79.0 311.0,77.99999999999999 311.5,77.0 312.0,75.99999999999997 312.5,75.0 313.0,74.00000000000003 313.5,73.0 314.0,72.00000000000001 314.5,71.0 315.0,70.00000000000003 315.5,69.0 316.0,68.00000000000003 316.5,67.0 317.0,66.0 317.5,65.0 318.0,64.0 318.5,63.0 319.0,62.0 319.5,61.0 320.0,60.0 320.5,59.0 321.0,58.0 321.5,56.99999999999997 322.0,56.0 322.5,54.99999999999997 323.0,54.0 323.5,52.99999999999997 324.0,52.0 324.5,50.99999999999997 325.0,50.0 325.5,49.00000000000003 326.0,48.0 326.5,47.00000000000003 327.0,46.0 327.5,45.00000000000003 328.0,44.0 328.5,43.00000000000003 329.0,42.0 329.5,41.0 330.0,40.0 330.5,39.0 331.0,38.0 331.5,37.0 332.0,36.0 332.5,35.0 333.0,34.0 333.5,33.0 334.0,31.99999999999997 334.5,31.0 335.0,29.99999999999997 335.5,29.0 336.0,27.99999999999997 336.5,27.0 337.0,25.99999999999997 337.5,25.0 338.0,24.00000000000003 338.5,23.0 339.0,22.00000000000003 339.5,21.0 340.0,20.00000000000003 340.5,19.0 341.0,18.00000000000003 341.5,17.0 342.0,16.0 342.5,15.0 343.0,14.0 343.5,13.0 344.0,12.0 344.5,11.0 345.0,10.0 345.5,9.0 346.0,8.0 346.5,6.999999999999972 347.0,6.0 347.5,4.999999999999972 348.0,4.0 348.5,2.9999999999999716 349.0,2.0 349.5,0.9999999999999716 350.0,0.0 350.5,-0.9999999999999716 351.0,-2.0 351.5,-2.9999999999999716 352.0,-4.0 352.5,-4.999999999999972 353.0,-6.0 353.5,-6.999999999999972 354.0,-8.0 354.5,-9.0 355.0,-10.0 355.5,-11.0 356.0,-12.0 356.5,-13.0 357.0,-14.0 357.5,-15.0 358.0,-16.0 358.5,-17.0 359.0,-18.00000000000003 359.5,-19.0 360.0,-20.00000000000003 360.5,-21.0 361.0,-22.00000000000003 361.5,-23.0 362.0,-24.00000000000003 362.5,-25.0 363.0,-25.99999999999997 363.5,-27.0 364.0,-27.99999999999997 364.5,-29.0 365.0,-29.99999999999997 365.5,-31.0 366.0,-31.99999999999997 366.5,-33.0 367.0,-34.0 367.5,-35.0 368.0,-36.0 368.5,-37.0 369.0,-38.0 369.5,-39.0 370.0,-40.0 370.5,-41.0 371.0,-42.0 371.5,-43.00000000000003 372.0,-44.0 372.5,-45.00000000000003 373.0,-46.0 373.5,-47.00000000000003 374.0,-48.0 374.5,-49.00000000000003 375.0,-50.0 375.5,-50.99999999999997 376.0,-52.0 376.5,-52.99999999999997 377.0,-54.0 377.5,-54.99999999999997 378.0,-56.0 378.5,-57.0 379.0,-58.0 379.5,-59.0 380.0,-60.0 380.5,-61.0 381.0,-62.0 381.5,-63.0 382.0,-64.0 382.5,-65.0 383.0,-66.0 383.5,-67.0 384.0,-68.0 384.5,-69.0 385.0,-70.0 385.5,-71.0 386.0,-72.0 386.5,-73.0 387.0,-74.0 387.5,-75.0 388.0,-76.0 388.5,-77.0 389.0,-78.0 389.5,-79.0 390.0,-80.0 390.5,-81.0 391.0,-82.0 391.5,-83.0 392.0,-84.0 392.5,-85.0 393.0,-86.0 393.5,-87.0 394.0,-88.0 394.5,-89.0 395.0,-90.0 395.5,-91.0 396.0,-92.0 396.5,-93.0 397.0,-94.0 397.5,-95.0 398.0,-96.0 398.5,-97.0 399.0,-98.0 399.5,-99.0 400.0,-100.0" fill="none" stroke="green" stroke-width="1" />
    <polyline points="0,-300.0 0.5,-298.50000000000006 1.0,-297.0 1.5,-295.5 2.0,-293.99999999999994 2.5,-292.50000000000006 3.0,-291.0 3.5,-289.50000000000006 4.0,-288.0 4.5,-286.5 5.0,-284.99999999999994 5.5,-283.5 6.0,-282.0 6.5,-280.5 7.0,-279.0 7.5,-277.50000000000006 8.0,-276.0 8.5,-274.5 9.0,-272.99999999999994 9.5,-271.5 10.0,-269.99999999999994 10.5,-268.50000000000006 11.0,-267.0 11.5,-265.5 12.0,-263.99999999999994 12.5,-262.5 13.0,-261.00000000000006 13.5,-259.5 14.0,-258.0 14.5,-256.49999999999994 15.0,-255.00000000000006 15.5,-253.5 16.0,-252.00000000000006 16.5,-250.5 17.0,-249.0 17.5,-247.49999999999994 18.0,-246.0 18.5,-244.5 19.0,-243.0 19.5,-241.5 20.0,-240.00000000000006 20.5,-238.5 21.0,-237.0 21.5,-235.49999999999994 22.0,-234.0 22.5,-232.49999999999994 23.0,-231.00000000000006 23.5,-229.5 24.0,-228.0 24.5,-226.49999999999994 25.0,-225.0 25.5,-223.50000000000006 26.0,-222.0 26.5,-220.5 27.0,-218.99999999999994 27.5,-217.50000000000006 28.0,-216.0 28.5,-214.50000000000006 29.0,-213.0 29.5,-211.5 30.0,-209.99999999999994 30.5,-208.5 31.0,-207.0 31.5,-205.5 32.0,-204.0 32.5,-202.50000000000006 33.0,-201.0 33.5,-199.5 34.0,-197.99999999999994 34.5,-196.5 35.0,-194.99999999999994 35.5,-193.50000000000006 36.0,-192.0 36.5,-190.5 37.0,-188.99999999999994 37.5,-187.5 38.0,-186.00000000000006 38.5,-184.5 39.0,-183.0 39.5,-181.49999999999994 40.0,-180.00000000000006 40.5,-178.5 41.0,-177.00000000000006 41.5,-175.5 42.0,-174.0 42.5,-172.49999999999994 43.0,-171.0 43.5,-169.5 44.0,-168.0 44.5,-166.5 45.0,-165.00000000000006 45.5,-163.5 46.0,-162.0 46.5,-160.49999999999994 47.0,-159.0 47.5,-157.49999999999994 48.0,-156.00000000000006 48.5,-154.5 49.0,-153.0 49.5,-151.49999999999994 50.0,-150.0 50.5,-148.50000000000006 51.0,-147.0 51.5,-145.5 52.0,-143.99999999999994 52.5,-142.50000000000006 53.0,-141.0 53.5,-139.50000000000006 54.0,-138.0 54.5,-136.5 55.0,-134.99999999999994 55.5,-133.5 56.0,-132.0 56.5,-130.5 57.0,-129.0 57.5,-127.50000000000006 58.0,-126.0 58.5,-124.5 59.0,-122.99999999999994 59.5,-121.5 60.0,-119.99999999999994 60.5,-118.50000000000006 61.0,-117.0 61.5,-115.5 62.0,-113.99999999999994 62.5,-112.5 63.0,-111.00000000000006 63.5,-109.5 64.0,-108.0 64.5,-106.49999999999994 65.0,-105.00000000000006 65.5,-103.5 66.0,-102.00000000000006 66.5,-100.5 67.0,-99.0 67.5,-97.49999999999994 68.0,-96.0 68.5,-94.5 69.0,-93.0 69.5,-91.5 70.0,-90.00000000000006 70.5,-88.5 71.0,-87.0 71.5,-85.49999999999994 72.0,-84.0 72.5,-82.5 73.0,-81.0 73.5,-79.5 74.0,-78.0 74.5,-76.49999999999994 75.0,-75.0 75.5,-73.50000000000006 76.0,-72.0 76.5,-70.5 77.0,-69.0 77.5,-67.5 78.0,-66.0 78.5,-64.50000000000006 79.0,-63.0 79.5,-61.5 80.0,-59.99999999999994 80.5,-58.5 81.0,-57.0 81.5,-55.50000000000003 82.0,-54.0 82.5,-52.50000000000003 83.0,-50.99999999999997 83.5,-49.5 84.0,-47.99999999999994 84.5,-46.5 85.0,-44.99999999999997 85.5,-43.5 86.0,-42.0 86.5,-40.50000000000003 87.0,-38.99999999999997 87.5,-37.5 88.0,-36.00000000000003 88.5,-34.49999999999997 89.0,-33.0 89.5,-31.5 90.0,-30.00000000000003 90.5,-28.5 91.0,-27.000000000000057 91.5,-25.5 92.0,-24.00000000000003 92.5,-22.49999999999997 93.0,-21.0 93.5,-19.49999999999997 94.0,-18.00000000000003 94.5,-16.5 95.0,-15.000000000000028 95.5,-13.499999999999972 96.0,-12.0 96.5,-10.499999999999943 97.0,-9.0 97.5,-7.499999999999972 98.0,-6.0 98.5,-4.5 99.0,-3.0000000000000284 99.5,-1.4999999999999716 100.0,0.0 100.5,1.5 101.0,3.0000000000000284 101.5,4.5 102.0,6.0 102.5,7.500000000000028 103.0,9.0 103.5,10.5 104.0,12.0 104.5,13.500000000000028 105.0,15.000000000000028 105.5,16.5 106.0,18.00000000000003 106.5,19.49999999999997 107.0,21.0 107.5,22.49999999999997 108.0,23.99999999999997 108.5,25.5 109.0,27.0 109.5,28.5 110.0,29.99999999999997 110.5,31.5 111.0,33.0 111.5,34.49999999999997 112.0,36.0 112.5,37.5 113.0,39.0 113.5,40.50000000000003 114.0,42.0 114.5,43.5 115.0,45.00000000000003 115.5,46.5 116.0,48.0 116.5,49.5 117.0,51.00000000000003 117.5,52.50000000000003 118.0,54.0 118.5,55.50000000000003 119.0,56.99999999999997 119.5,58.5 120.0,59.99999999999997 120.5,61.49999999999997 121.0,63.0 121.5,64.5 122.0,66.0 122.5,67.49999999999997 123.0,69.0 123.5,70.5 124.0,71.99999999999997 124.5,73.49999999999999 125.0,75.0 125.5,76.50000000000001 126.0,78.00000000000003 126.5,79.5 127.0,81.0 127.5,82.50000000000001 128.0,83.99999999999999 128.5,85.5 129.0,87.00000000000001 129.5,88.50000000000003 130.0,90.00000000000003 130.5,91.5 131.0,93.00000000000001 131.5,94.49999999999999 132.0,96.0 132.5,97.49999999999997 133.0,98.99999999999997 133.5,100.49999999999999 134.0,102.0 134.5,103.49999999999999 135.0,104.99999999999999 135.5,106.5 136.0,108.0 136.5,109.5 137.0,110.99999999999999 137.5,112.5 138.0,114.00000000000001 138.5,115.5 139.0,117.0 139.5,118.5 140.0,120.00000000000001 140.5,121.50000000000001 141.0,123.0 141.5,124.50000000000001 142.0,126.00000000000003 142.5,127.50000000000001 143.0,129.0 143.5,130.5 144.0,132.0 144.5,133.5 145.0,135.0 145.5,136.49999999999997 146.0,138.0 146.5,139.5 147.0,141.0 147.5,142.5 148.0,144.0 148.5,145.5 149.0,147.0 149.5,148.5 150.0,150.0 150.5,151.5 151.0,153.0 151.5,154.5 152.0,156.0 152.5,157.5 153.0,159.0 153.5,160.5 154.0,162.0 154.5,163.5 155.0,165.0 155.5,166.5 156.0,168.0 156.5,169.5 157.0,171.0 157.5,172.5 158.0,174.0 158.5,175.5 159.0,177.0 159.5,178.5 160.0,179.99999999999997 160.5,181.5 161.0,183.0 161.5,184.5 162.0,186.0 162.5,187.5 163.0,189.0 163.5,190.5 164.0,192.0 164.5,193.5 165.0,195.00000000000003 165.5,196.5 166.0,198.0 166.5,199.5 167.0,201.0 167.5,202.5 168.0,204.0 168.5,205.5 169.0,207.0 169.5,208.5 170.0,210.0 170.5,211.5 171.0,213.0 171.5,214.5 172.0,216.0 172.5,217.5 173.0,219.0 173.5,220.5 174.0,222.0 174.5,223.5 175.0,225.0 175.5,226.5 176.0,228.0 176.5,229.5 177.0,231.0 177.5,232.5 178.0,234.0 178.5,235.5 179.0,237.0 179.5,238.5 180.0,240.0 180.5,241.5 181.0,243.0 181.5,244.5 182.0,246.0 182.5,247.5 183.0,249.0 183.5,250.5 184.0,252.0 184.5,253.5 185.0,255.0 185.5,256.5 186.0,258.0 186.5,259.5 187.0,261.0 187.5,262.5 188.0,264.0 188.5,265.5 189.0,267.0 189.5,268.5 190.0,270.0 190.5,271.5 191.0,273.0 191.5,274.5 192.0,276.0 192.5,277.5 193.0,279.0 193.5,280.5 194.0,282.0 194.5,283.5 195.0,285.0 195.5,286.5 196.0,288.0 196.5,289.5 197.0,291.0 197.5,292.5 198.0,294.0 198.5,295.5 199.0,297.0 199.5,298.5 200.0,300.0 200.5,301.5 201.0,303.0 201.5,304.5 202.0,306.0 202.5,307.5 203.0,309.0 203.5,310.5 204.0,312.0 204.5,313.5 205.0,315.0 205.5,316.5 206.0,318.0 206.5,319.5 207.0,321.0 207.5,322.5 208.0,324.0 208.5,325.5 209.0,327.0 209.5,328.5 210.0,330.0 210.5,331.5 211.0,333.0 211.5,334.5 212.0,336.0 212.5,337.5 213.0,339.0 213.5,340.5 214.0,342.0 214.5,343.5 215.0,345.0 215.5,346.5 216.0,348.0 216.5,349.5 217.0,351.0 217.5,352.5 218.0,354.0 218.5,355.5 219.0,357.0 219.5,358.5 220.0,360.0 220.5,361.5 221.0,363.0 221.5,364.5 222.0,366.0 222.5,367.5 223.0,369.0 223.5,370.5 224.0,372.0 224.5,373.5 225.0,375.0 225.5,376.5 226.0,378.0 226.5,379.5 227.0,381.0 227.5,382.5 228.0,384.0 228.5,385.5 229.0,387.0 229.5,388.5 230.0,390.0 230.5,391.5 231.0,393.0 231.5,394.5 232.0,396.0 232.5,397.5 233.0,399.0 233.5,400.5 234.0,402.0 234.5,403.5 235.0,405.0 235.5,406.5 236.0,408.0 236.5,409.5 237.0,411.0 237.5,412.5 238.0,414.0 238.5,415.5 239.0,417.0 239.5,418.5 240.0,420.0 240.5,421.5 241.0,423.0 241.5,424.5 242.0,426.0 242.5,427.5 243.0,429.0 243.5,430.5 244.0,432.0 244.5,433.5 245.0,435.0 245.5,436.5 246.0,438.0 246.5,439.5 247.0,441.0 247.5,442.5 248.0,444.0 248.5,445.5 249.0,447.0 249.5,448.5 250.0,450.0 250.5,451.5 251.0,453.0 251.5,454.5 252.0,456.0 252.5,457.5 253.0,459.0 253.5,460.5 254.0,462.0 254.5,463.5 255.0,465.00000000000006 255.5,466.5 256.0,468.0 256.5,469.5 257.0,471.0 257.5,472.49999999999994 258.0,474.0 258.5,475.5 259.0,477.0 259.5,478.5 260.0,480.0 260.5,481.5 261.0,483.0 261.5,484.5 262.0,486.0 262.5,487.5 263.0,489.0 263.5,490.5 264.0,492.0 264.5,493.5 265.0,495.0 265.5,496.5 266.0,498.0 266.5,499.5 267.0,501.0 267.5,502.50000000000006 268.0,504.0 268.5,505.5 269.0,507.0 269.5,508.5 270.0,509.99999999999994 270.5,511.5 271.0,513.0 271.5,514.5 272.0,516.0 272.5,517.5 273.0,519.0 273.5,520.5 274.0,522.0 274.5,523.5 275.0,525.0 275.5,526.5 276.0,528.0 276.5,529.5 277.0,531.0 277.5,532.5 278.0,534.0 278.5,535.5 279.0,537.0 279.5,538.5 280.0,540.0 280.5,541.5 281.0,543.0 281.5,544.5 282.0,546.0 282.5,547.5 283.0,549.0 283.5,550.5 284.0,552.0 284.5,553.5 285.0,555.0 285.5,556.5 286.0,558.0 286.5,559.5 287.0,561.0 287.5,562.5 288.0,564.0 288.5,565.5 289.0,567.0 289.5,568.5 290.0,570.0 290.5,571.5 291.0,573.0 291.5,574.5 292.0,576.0 292.5,577.5 293.0,579.0 293.5,580.5 294.0,582.0 294.5,583.5 295.0,585.0 295.5,586.5 296.0,588.0 296.5,589.5 297.0,591.0 297.5,592.5 298.0,594.0 298.5,595.5 299.0,597.0 299.5,598.5 300.0,600.0 300.5,601.5 301.0,603.0 301.5,604.5 302.0,606.0 302.5,607.5 303.0,609.0 303.5,610.5 304.0,612.0 304.5,613.5 305.0,615.0 305.5,616.5 306.0,618.0 306.5,619.5 307.0,621.0 307.5,622.5 308.0,624.0 308.5,625.5 309.0,627.0 309.5,628.5 310.0,630.0 310.5,631.5 311.0,633.0 311.5,634.5 312.0,636.0 312.5,637.5 313.0,639.0 313.5,640.5 314.0,642.0 314.5,643.5 315.0,645.0 315.5,646.5 316.0,648.0 316.5,649.5 317.0,651.0 317.5,652.5 318.0,654.0 318.5,655.5 319.0,657.0 319.5,658.5 320.0,660.0 320.5,661.5 321.0,663.0 321.5,664.5 322.0,666.0 322.5,667.5 323.0,669.0 323.5,670.5 324.0,672.0 324.5,673.5 325.0,675.0 325.5,676.5 326.0,678.0 326.5,679.5 327.0,681.0 327.5,682.5 328.0,684.0 328.5,685.5 329.0,687.0 329.5,688.5 330.0,690.0 330.5,691.5 331.0,693.0 331.5,694.5 332.0,696.0 332.5,697.5 333.0,699.0 333.5,700.5 334.0,702.0 334.5,703.5 335.0,705.0 335.5,706.5 336.0,708.0 336.5,709.5 337.0,711.0 337.5,712.5 338.0,714.0 338.5,715.5 339.0,717.0 339.5,718.5 340.0,719.9999999999999 340.5,721.5 341.0,723.0 341.5,724.5 342.0,726.0 342.5,727.5 343.0,729.0 343.5,730.5 344.0,732.0 344.5,733.5 345.0,735.0 345.5,736.5 346.0,738.0 346.5,739.5 347.0,741.0 347.5,742.5000000000001 348.0,744.0 348.5,745.5 349.0,747.0 349.5,748.5 350.0,750.0 350.5,751.5 351.0,753.0 351.5,754.5 352.0,756.0 352.5,757.4999999999999 353.0,759.0 353.5,760.5 354.0,762.0 354.5,763.5 355.0,765.0 355.5,766.5 356.0,768.0 356.5,769.5 357.0,771.0 357.5,772.5 358.0,774.0 358.5,775.5 359.0,777.0 359.5,778.5 360.0,780.0000000000001 360.5,781.5 361.0,783.0 361.5,784.5 362.0,786.0 362.5,787.5 363.0,789.0 363.5,790.5 364.0,792.0 364.5,793.5 365.0,794.9999999999999 365.5,796.5 366.0,798.0 366.5,799.5 367.0,801.0 367.5,802.5 368.0,804.0 368.5,805.5 369.0,807.0 369.5,808.5 370.0,810.0 370.5,811.5 371.0,813.0 371.5,814.5 372.0,816.0 372.5,817.5000000000001 373.0,819.0 373.5,820.5 374.0,822.0 374.5,823.5 375.0,825.0 375.5,826.5 376.0,828.0 376.5,829.5 377.0,831.0 377.5,832.4999999999999 378.0,834.0 378.5,835.5 379.0,837.0 379.5,838.5 380.0,840.0 380.5,841.5 381.0,843.0 381.5,844.5 382.0,846.0 382.5,847.5 383.0,849.0 383.5,850.5 384.0,852.0 384.5,853.5 385.0,855.0000000000001 385.5,856.5 386.0,858.0 386.5,859.5 387.0,861.0 387.5,862.5 388.0,864.0 388.5,865.5 389.0,867.0 389.5,868.5 390.0,869.9999999999999 390.5,871.5 391.0,873.0 391.5,874.5 392.0,876.0 392.5,877.5 393.0,879.0 393.5,880.5 394.0,882.0 394.5,883.5 395.0,885.0 395.5,886.5 396.0,888.0 396.5,889.5 397.0,891.0 397.5,892.5000000000001 398.0,894.0 398.5,895.5 399.0,897.0 399.5,898.5 400.0,900.0" fill="none" stroke="black" stroke-width="1" />
    <text x="37.5" y="100.0" font-size="18" fill="black">y = mx+b</text>
    <text x="65.9" y="154.5" font-size="18" fill="black" text-anchor="end">m = </text>
    <text x="87.5" y="144.6" font-size="18" fill="black" text-anchor="middle">y - b</text>
    <text x="87.5" y="162.6" font-size="18" fill="black" text-anchor="middle">x</text>
    <line x1="69.5" y1="150.0" x2="105.5" y2="150.0" stroke="black" stroke-width="0.5" />
    <text x="225.0" y="375.0" font-size="12" fill="black">-7 + 4 : 1 = -3</text>
    <text x="75.0" y="187.5" font-size="12" fill="pink">0 - 2 : -4 = 0.5</text>
    <text x="225.0" y="300.0" font-size="12" fill="green">0 - (-4) : 2 = 2</text>
    <text x="300.0" y="195.0" font-size="12" fill="blue">0 - 4 : 4 = -1</text>
</svg>