<svg width="400" height="300" xmlns="http://www.w3.org/2000/svg" style="background:white;">
    <line x1="0" y1="150.0" x2="400" y2="150.0" stroke="black" stroke-width="1.0" />
    <line x1="200.0" y1="0" x2="200.0" y2="300" stroke="black" stroke-width="1.0" />
    <line x1="0.0" y1="0" x2="0.0" y2="300" stroke="#eee" stroke-width="0.5" />
    <line x1="10.0" y1="0" x2="10.0" y2="300" stroke="#eee" stroke-width="0.5" />
    <line x1="20.0" y1="0" x2="20.0" y2="300" stroke="#eee" stroke-width="0.5" />
    <line x1="30.0" y1="0" x2="30.0" y2="300" stroke="#eee" stroke-width="0.5" />
    <line x1="40.0" y1="0" x2="40.0" y2="300" stroke="#eee" stroke-width="0.5" />
    <line x1="50.0" y1="0" x2="50.0" y2="300" stroke="#eee" stroke-width="0.5" />
    <line x1="60.0" y1="0" x2="60.0" y2="300" stroke="#eee" stroke-width="0.5" />
    <line x1="70.0" y1="0" x2="70.0" y2="300" stroke="#eee" stroke-width="0.5" />
    <line x1="80.0" y1="0" x2="80.0" y2="300" stroke="#eee" stroke-width="0.5" />
    <line x1="90.0" y1="0" x2="90.0" y2="300" stroke="#eee" stroke-width="0.5" />
    <line x1="100.0" y1="0" x2="100.0" y2="300" stroke="#eee" stroke-width="0.5" />
    <line x1="110.0" y1="0" x2="110.0" y2="300" stroke="#eee" stroke-width="0.5" />
    <line x1="120.0" y1="0" x2="120.0" y2="300" stroke="#eee" stroke-width="0.5" />
    <line x1="130.0" y1="0" x2="130.0" y2="300" stroke="#eee" stroke-width="0.5" />
    <line x1="140.0" y1="0" x2="140.0" y2="300" stroke="#eee" stroke-width="0.5" />
    <line x1="150.0" y1="0" x2="150.0" y2="300" stroke="#eee" stroke-width="0.5" />
    <line x1="160.0" y1="0" x2="160.0" y2="300" stroke="#eee" stroke-width="0.5" />
    <line x1="170.0" y1="0" x2="170.0" y2="300" stroke="#eee" stroke-width="0.5" />
    <line x1="180.0" y1="0" x2="180.0" y2="300" stroke="#eee" stroke-width="0.5" />
    <line x1="190.0" y1="0" x2="190.0" y2="300" stroke="#eee" stroke-width="0.5" />
    <line x1="200.0" y1="0" x2="200.0" y2="300" stroke="#eee" stroke-width="0.5" />
    <line x1="210.0" y1="0" x2="210.0" y2="300" stroke="#eee" stroke-width="0.5" />
    <line x1="220.0" y1="0" x2="220.0" y2="300" stroke="#eee" stroke-width="0.5" />
    <line x1="230.0" y1="0" x2="230.0" y2="300" stroke="#eee" stroke-width="0.5" />
    <line x1="240.0" y1="0" x2="240.0" y2="300" stroke="#eee" stroke-width="0.5" />
    <line x1="250.0" y1="0" x2="250.0" y2="300" stroke="#eee" stroke-width="0.5" />
    <line x1="260.0" y1="0" x2="260.0" y2="300" stroke="#eee" stroke-width="0.5" />
    <line x1="270.0" y1="0" x2="270.0" y2="300" stroke="#eee" stroke-width="0.5" />
    <line x1="280.0" y1="0" x2="280.0" y2="300" stroke="#eee" stroke-width="0.5" />
    <line x1="290.0" y1="0" x2="290.0" y2="300" stroke="#eee" stroke-width="0.5" />
    <line x1="300.0" y1="0" x2="300.0" y2="300" stroke="#eee" stroke-width="0.5" />
    <line x1="310.0" y1="0" x2="310.0" y2="300" stroke="#eee" stroke-width="0.5" />
    <line x1="320.0" y1="0" x2="320.0" y2="300" stroke="#eee" stroke-width="0.5" />
    <line x1="330.0" y1="0" x2="330.0" y2="300" stroke="#eee" stroke-width="0.5" />
    <line x1="340.0" y1="0" x2="340.0" y2="300" stroke="#eee" stroke-width="0.5" />
    <line x1="350.0" y1="0" x2="350.0" y2="300" stroke="#eee" stroke-width="0.5" />
    <line x1="360.0" y1="0" x2="360.0" y2="300" stroke="#eee" stroke-width="0.5" />
    <line x1="370.0" y1="0" x2="370.0" y2="300" stroke="#eee" stroke-width="0.5" />
    <line x1="380.0" y1="0" x2="380.0" y2="300" stroke="#eee" stroke-width="0.5" />
    <line x1="390.0" y1="0" x2="390.0" y2="300" stroke="#eee" stroke-width="0.5" />
    <line x1="400.0" y1="0" x2="400.0" y2="300" stroke="#eee" stroke-width="0.5" />
    <line x1="0" y1="300.0" x2="400" y2="300.0" stroke="#eee" stroke-width="0.5" />
    <line x1="0" y1="290.0" x2="400" y2="290.0" stroke="#eee" stroke-width="0.5" />
    <line x1="0" y1="280.0" x2="400" y2="280.0" stroke="#eee" stroke-width="0.5" />
    <line x1="0" y1="270.0" x2="400" y2="270.0" stroke="#eee" stroke-width="0.5" />
    <line x1="0" y1="260.0" x2="400" y2="260.0" stroke="#eee" stroke-width="0.5" />
    <line x1="0" y1="250.0" x2="400" y2="250.0" stroke="#eee" stroke-width="0.5" />
    <line x1="0" y1="240.0" x2="400" y2="240.0" stroke="#eee" stroke-width="0.5" />
    <line x1="0" y1="230.0" x2="400" y2="230.0" stroke="#eee" stroke-width="0.5" />
    <line x1="0" y1="220.0" x2="400" y2="220.0" stroke="#eee" stroke-width="0.5" />
    <line x1="0" y1="210.0" x2="400" y2="210.0" stroke="#eee" stroke-width="0.5" />
    <line x1="0" y1="200.0" x2="400" y2="200.0" stroke="#eee" stroke-width="0.5" />
    <line x1="0" y1="190.0" x2="400" y2="190.0" stroke="#eee" stroke-width="0.5" />
    <line x1="0" y1="180.0" x2="400" y2="180.0" stroke="#eee" stroke-width="0.5" />
    <line x1="0" y1="170.0" x2="400" y2="170.0" stroke="#eee" stroke-width="0.5" />
    <line x1="0" y1="160.0" x2="400" y2="160.0" stroke="#eee" stroke-width="0.5" />
    <line x1="0" y1="150.0" x2="400" y2="150.0" stroke="#eee" stroke-width="0.5" />
    <line x1="0" y1="140.0" x2="400" y2="140.0" stroke="#eee" stroke-width="0.5" />
    <line x1="0" y1="130.0" x2="400" y2="130.0" stroke="#eee" stroke-width="0.5" />
    <line x1="0" y1="120.0" x2="400" y2="120.0" stroke="#eee" stroke-width="0.5" />
    <line x1="0" y1="110.0" x2="400" y2="110.0" stroke="#eee" stroke-width="0.5" />
    <line x1="0" y1="100.0" x2="400" y2="100.0" stroke="#eee" stroke-width="0.5" />
    <line x1="0" y1="90.0" x2="400" y2="90.0" stroke="#eee" stroke-width="0.5" />
    <line x1="0" y1="80.0" x2="400" y2="80.0" stroke="#eee" stroke-width="0.5" />
    <line x1="0" y1="70.0" x2="400" y2="70.0" stroke="#eee" stroke-width="0.5" />
    <line x1="0" y1="60.0" x2="400" y2="60.0" stroke="#eee" stroke-width="0.5" />
    <line x1="0" y1="50.0" x2="400" y2="50.0" stroke="#eee" stroke-width="0.5" />
    <line x1="0" y1="40.0" x2="400" y2="40.0" stroke="#eee" stroke-width="0.5" />
    <line x1="0" y1="30.0" x2="400" y2="30.0" stroke="#eee" stroke-width="0.5" />
    <line x1="0" y1="20.0" x2="400" y2="20.0" stroke="#eee" stroke-width="0.5" />
    <line x1="0" y1="10.0" x2="400" y2="10.0" stroke="#eee" stroke-width="0.5" />
    <line x1="0" y1="0.0" x2="400" y2="0.0" stroke="#eee" stroke-width="0.5" />
    <line x1="0.0" y1="147.0" x2="0.0" y2="153.0" stroke="black" stroke-width="0.5" />
    <text x="-1.25" y="158.0" font-size="4" fill="black">-20</text>
    <line x1="10.0" y1="147.0" x2="10.0" y2="153.0" stroke="black" stroke-width="0.5" />
    <text x="8.75" y="158.0" font-size="4" fill="black">-19</text>
    <line x1="20.0" y1="147.0" x2="20.0" y2="153.0" stroke="black" stroke-width="0.5" />
    <text x="18.75" y="158.0" font-size="4" fill="black">-18</text>
    <line x1="30.0" y1="147.0" x2="30.0" y2="153.0" stroke="black" stroke-width="0.5" />
    <text x="28.75" y="158.0" font-size="4" fill="black">-17</text>
    <line x1="40.0" y1="147.0" x2="40.0" y2="153.0" stroke="black" stroke-width="0.5" />
    <text x="38.75" y="158.0" font-size="4" fill="black">-16</text>
    <line x1="50.0" y1="147.0" x2="50.0" y2="153.0" stroke="black" stroke-width="0.5" />
    <text x="48.75" y="158.0" font-size="4" fill="black">-15</text>
    <line x1="60.0" y1="147.0" x2="60.0" y2="153.0" stroke="black" stroke-width="0.5" />
    <text x="58.75" y="158.0" font-size="4" fill="black">-14</text>
    <line x1="70.0" y1="147.0" x2="70.0" y2="153.0" stroke="black" stroke-width="0.5" />
    <text x="68.75" y="158.0" font-size="4" fill="black">-13</text>
    <line x1="80.0" y1="147.0" x2="80.0" y2="153.0" stroke="black" stroke-width="0.5" />
    <text x="78.75" y="158.0" font-size="4" fill="black">-12</text>
    <line x1="90.0" y1="147.0" x2="90.0" y2="153.0" stroke="black" stroke-width="0.5" />
    <text x="88.75" y="158.0" font-size="4" fill="black">-11</text>
    <line x1="100.0" y1="147.0" x2="100.0" y2="153.0" stroke="black" stroke-width="0.5" />
    <text x="98.75" y="158.0" font-size="4" fill="black">-10</text>
    <line x1="110.0" y1="147.0" x2="110.0" y2="153.0" stroke="black" stroke-width="0.5" />
    <text x="108.75" y="158.0" font-size="4" fill="black">-9</text>
    <line x1="120.0" y1="147.0" x2="120.0" y2="153.0" stroke="black" stroke-width="0.5" />
    <text x="118.75" y="158.0" font-size="4" fill="black">-8</text>
    <line x1="130.0" y1="147.0" x2="130.0" y2="153.0" stroke="black" stroke-width="0.5" />
    <text x="128.75" y="158.0" font-size="4" fill="black">-7</text>
    <line x1="140.0" y1="147.0" x2="140.0" y2="153.0" stroke="black" stroke-width="0.5" />
    <text x="138.75" y="158.0" font-size="4" fill="black">-6</text>
    <line x1="150.0" y1="147.0" x2="150.0" y2="153.0" stroke="black" stroke-width="0.5" />
    <text x="148.75" y="158.0" font-size="4" fill="black">-5</text>
    <line x1="160.0" y1="147.0" x2="160.0" y2="153.0" stroke="black" stroke-width="0.5" />
    <text x="158.75" y="158.0" font-size="4" fill="black">-4</text>
    <line x1="170.0" y1="147.0" x2="170.0" y2="153.0" stroke="black" stroke-width="0.5" />
    <text x="168.75" y="158.0" font-size="4" fill="black">-3</text>
    <line x1="180.0" y1="147.0" x2="180.0" y2="153.0" stroke="black" stroke-width="0.5" />
    <text x="178.75" y="158.0" font-size="4" fill="black">-2</text>
    <line x1="190.0" y1="147.0" x2="190.0" y2="153.0" stroke="black" stroke-width="0.5" />
    <text x="188.75" y="158.0" font-size="4" fill="black">-1</text>
    <line x1="200.0" y1="147.0" x2="200.0" y2="153.0" stroke="black" stroke-width="0.5" />
    <text x="198.75" y="158.0" font-size="4" fill="black">0</text>
    <line x1="210.0" y1="147.0" x2="210.0" y2="153.0" stroke="black" stroke-width="0.5" />
    <text x="208.75" y="158.0" font-size="4" fill="black">1</text>
    <line x1="220.0" y1="147.0" x2="220.0" y2="153.0" stroke="black" stroke-width="0.5" />
    <text x="218.75" y="158.0" font-size="4" fill="black">2</text>
    <line x1="230.0" y1="147.0" x2="230.0" y2="153.0" stroke="black" stroke-width="0.5" />
    <text x="228.75" y="158.0" font-size="4" fill="black">3</text>
    <line x1="240.0" y1="147.0" x2="240.0" y2="153.0" stroke="black" stroke-width="0.5" />
    <text x="238.75" y="158.0" font-size="4" fill="black">4</text>
    <line x1="250.0" y1="147.0" x2="250.0" y2="153.0" stroke="black" stroke-width="0.5" />
    <text x="248.75" y="158.0" font-size="4" fill="black">5</text>
    <line x1="260.0" y1="147.0" x2="260.0" y2="153.0" stroke="black" stroke-width="0.5" />
    <text x="258.75" y="158.0" font-size="4" fill="black">6</text>
    <line x1="270.0" y1="147.0" x2="270.0" y2="153.0" stroke="black" stroke-width="0.5" />
    <text x="268.75" y="158.0" font-size="4" fill="black">7</text>
    <line x1="280.0" y1="147.0" x2="280.0" y2="153.0" stroke="black" stroke-width="0.5" />
    <text x="278.75" y="158.0" font-size="4" fill="black">8</text>
    <line x1="290.0" y1="147.0" x2="290.0" y2="153.0" stroke="black" stroke-width="0.5" />
    <text x="288.75" y="158.0" font-size="4" fill="black">9</text>
    <line x1="300.0" y1="147.0" x2="300.0" y2="153.0" stroke="black" stroke-width="0.5" />
    <text x="298.75" y="158.0" font-size="4" fill="black">10</text>
    <line x1="310.0" y1="147.0" x2="310.0" y2="153.0" stroke="black" stroke-width="0.5" />
    <text x="308.75" y="158.0" font-size="4" fill="black">11</text>
    <line x1="320.0" y1="147.0" x2="320.0" y2="153.0" stroke="black" stroke-width="0.5" />
    <text x="318.75" y="158.0" font-size="4" fill="black">12</text>
    <line x1="330.0" y1="147.0" x2="330.0" y2="153.0" stroke="black" stroke-width="0.5" />
    <text x="328.75" y="158.0" font-size="4" fill="black">13</text>
    <line x1="340.0" y1="147.0" x2="340.0" y2="153.0" stroke="black" stroke-width="0.5" />
    <text x="338.75" y="158.0" font-size="4" fill="black">14</text>
    <line x1="350.0" y1="147.0" x2="350.0" y2="153.0" stroke="black" stroke-width="0.5" />
    <text x="348.75" y="158.0" font-size="4" fill="black">15</text>
    <line x1="360.0" y1="147.0" x2="360.0" y2="153.0" stroke="black" stroke-width="0.5" />
    <text x="358.75" y="158.0" font-size="4" fill="black">16</text>
    <line x1="370.0" y1="147.0" x2="370.0" y2="153.0" stroke="black" stroke-width="0.5" />
    <text x="368.75" y="158.0" font-size="4" fill="black">17</text>
    <line x1="380.0" y1="147.0" x2="380.0" y2="153.0" stroke="black" stroke-width="0.5" />
    <text x="378.75" y="158.0" font-size="4" fill="black">18</text>
    <line x1="390.0" y1="147.0" x2="390.0" y2="153.0" stroke="black" stroke-width="0.5" />
    <text x="388.75" y="158.0" font-size="4" fill="black">19</text>
    <line x1="400.0" y1="147.0" x2="400.0" y2="153.0" stroke="black" stroke-width="0.5" />
    <text x="398.75" y="158.0" font-size="4" fill="black">20</text>
    <line x1="197.0" y1="300.0" x2="203.0" y2="300.0" stroke="black" stroke-width="0.5" />
    <text x="192.0" y="301.25" font-size="4" fill="black">-15</text>
    <line x1="197.0" y1="290.0" x2="203.0" y2="290.0" stroke="black" stroke-width="0.5" />
    <text x="192.0" y="291.25" font-size="4" fill="black">-14</text>
    <line x1="197.0" y1="280.0" x2="203.0" y2="280.0" stroke="black" stroke-width="0.5" />
    <text x="192.0" y="281.25" font-size="4" fill="black">-13</text>
    <line x1="197.0" y1="270.0" x2="203.0" y2="270.0" stroke="black" stroke-width="0.5" />
    <text x="192.0" y="271.25" font-size="4" fill="black">-12</text>
    <line x1="197.0" y1="260.0" x2="203.0" y2="260.0" stroke="black" stroke-width="0.5" />
    <text x="192.0" y="261.25" font-size="4" fill="black">-11</text>
    <line x1="197.0" y1="250.0" x2="203.0" y2="250.0" stroke="black" stroke-width="0.5" />
    <text x="192.0" y="251.25" font-size="4" fill="black">-10</text>
    <line x1="197.0" y1="240.0" x2="203.0" y2="240.0" stroke="black" stroke-width="0.5" />
    <text x="192.0" y="241.25" font-size="4" fill="black">-9</text>
    <line x1="197.0" y1="230.0" x2="203.0" y2="230.0" stroke="black" stroke-width="0.5" />
    <text x="192.0" y="231.25" font-size="4" fill="black">-8</text>
    <line x1="197.0" y1="220.0" x2="203.0" y2="220.0" stroke="black" stroke-width="0.5" />
    <text x="192.0" y="221.25" font-size="4" fill="black">-7</text>
    <line x1="197.0" y1="210.0" x2="203.0" y2="210.0" stroke="black" stroke-width="0.5" />
    <text x="192.0" y="211.25" font-size="4" fill="black">-6</text>
    <line x1="197.0" y1="200.0" x2="203.0" y2="200.0" stroke="black" stroke-width="0.5" />
    <text x="192.0" y="201.25" font-size="4" fill="black">-5</text>
    <line x1="197.0" y1="190.0" x2="203.0" y2="190.0" stroke="black" stroke-width="0.5" />
    <text x="192.0" y="191.25" font-size="4" fill="black">-4</text>
    <line x1="197.0" y1="180.0" x2="203.0" y2="180.0" stroke="black" stroke-width="0.5" />
    <text x="192.0" y="181.25" font-size="4" fill="black">-3</text>
    <line x1="197.0" y1="170.0" x2="203.0" y2="170.0" stroke="black" stroke-width="0.5" />
    <text x="192.0" y="171.25" font-size="4" fill="black">-2</text>
    <line x1="197.0" y1="160.0" x2="203.0" y2="160.0" stroke="black" stroke-width="0.5" />
    <text x="192.0" y="161.25" font-size="4" fill="black">-1</text>
    <line x1="197.0" y1="150.0" x2="203.0" y2="150.0" stroke="black" stroke-width="0.5" />
    <text x="192.0" y="151.25" font-size="4" fill="black">0</text>
    <line x1="197.0" y1="140.0" x2="203.0" y2="140.0" stroke="black" stroke-width="0.5" />
    <text x="192.0" y="141.25" font-size="4" fill="black">1</text>
    <line x1="197.0" y1="130.0" x2="203.0" y2="130.0" stroke="black" stroke-width="0.5" />
    <text x="192.0" y="131.25" font-size="4" fill="black">2</text>
    <line x1="197.0" y1="120.0" x2="203.0" y2="120.0" stroke="black" stroke-width="0.5" />
    <text x="192.0" y="121.25" font-size="4" fill="black">3</text>
    <line x1="197.0" y1="110.0" x2="203.0" y2="110.0" stroke="black" stroke-width="0.5" />
    <text x="192.0" y="111.25" font-size="4" fill="black">4</text>
    <line x1="197.0" y1="100.0" x2="203.0" y2="100.0" stroke="black" stroke-width="0.5" />
    <text x="192.0" y="101.25" font-size="4" fill="black">5</text>
    <line x1="197.0" y1="90.0" x2="203.0" y2="90.0" stroke="black" stroke-width="0.5" />
    <text x="192.0" y="91.25" font-size="4" fill="black">6</text>
    <line x1="197.0" y1="80.0" x2="203.0" y2="80.0" stroke="black" stroke-width="0.5" />
    <text x="192.0" y="81.25" font-size="4" fill="black">7</text>
    <line x1="197.0" y1="70.0" x2="203.0" y2="70.0" stroke="black" stroke-width="0.5" />
    <text x="192.0" y="71.25" font-size="4" fill="black">8</text>
    <line x1="197.0" y1="60.0" x2="203.0" y2="60.0" stroke="black" stroke-width="0.5" />
    <text x="192.0" y="61.25" font-size="4" fill="black">9</text>
    <line x1="197.0" y1="50.0" x2="203.0" y2="50.0" stroke="black" stroke-width="0.5" />
    <text x="192.0" y="51.25" font-size="4" fill="black">10</text>
    <line x1="197.0" y1="40.0" x2="203.0" y2="40.0" stroke="black" stroke-width="0.5" />
    <text x="192.0" y="41.25" font-size="4" fill="black">11</text>
    <line x1="197.0" y1="30.0" x2="203.0" y2="30.0" stroke="black" stroke-width="0.5" />
    <text x="192.0" y="31.25" font-size="4" fill="black">12</text>
    <line x1="197.0" y1="20.0" x2="203.0" y2="20.0" stroke="black" stroke-width="0.5" />
    <text x="192.0" y="21.25" font-size="4" fill="black">13</text>
    <line x1="197.0" y1="10.0" x2="203.0" y2="10.0" stroke="black" stroke-width="0.5" />
    <text x="192.0" y="11.25" font-size="4" fill="black">14</text>
    <line x1="197.0" y1="0.0" x2="203.0" y2="0.0" stroke="black" stroke-width="0.5" />
    <text x="192.0" y="1.25" font-size="4" fill="black">15</text>
    <polyline points="0,-90.0 0.5,-89.5 1.0,-89.0 1.5,-88.5 2.0,-88.0 2.5,-87.5 3.0,-87.0 3.5,-86.5 4.0,-86.0 4.5,-85.5 5.0,-85.0 5.5,-84.5 6.0,-84.0 6.5,-83.5 7.0,-83.0 7.5,-82.5 8.0,-82.0 8.5,-81.5 9.0,-81.0 9.5,-80.5 10.0,-80.0 10.5,-79.5 11.0,-79.0 11.5,-78.5 12.0,-78.0 12.5,-77.5 13.0,-77.0 13.5,-76.5 14.0,-76.0 14.5,-75.5 15.0,-75.0 15.5,-74.5 16.0,-74.0 16.5,-73.5 17.0,-73.0 17.5,-72.5 18.0,-72.0 18.5,-71.5 19.0,-71.0 19.5,-70.5 20.0,-70.0 20.5,-69.5 21.0,-69.0 21.5,-68.5 22.0,-68.0 22.5,-67.5 23.0,-67.0 23.5,-66.5 24.0,-66.0 24.5,-65.5 25.0,-65.0 25.5,-64.5 26.0,-64.0 26.5,-63.5 27.0,-63.0 27.5,-62.5 28.0,-62.0 28.5,-61.5 29.0,-61.0 29.5,-60.5 30.0,-60.0 30.5,-59.5 31.0,-59.0 31.5,-58.5 32.0,-58.0 32.5,-57.5 33.0,-57.0 33.5,-56.5 34.0,-56.0 34.5,-55.5 35.0,-55.0 35.5,-54.5 36.0,-54.0 36.5,-53.5 37.0,-53.0 37.5,-52.5 38.0,-52.0 38.5,-51.5 39.0,-51.0 39.5,-50.5 40.0,-50.0 40.5,-49.5 41.0,-49.0 41.5,-48.5 42.0,-48.0 42.5,-47.5 43.0,-47.0 43.5,-46.5 44.0,-46.0 44.5,-45.5 45.0,-45.0 45.5,-44.5 46.0,-44.0 46.5,-43.5 47.0,-43.0 47.5,-42.5 48.0,-42.0 48.5,-41.5 49.0,-41.0 49.5,-40.5 50.0,-40.0 50.5,-39.5 51.0,-39.0 51.5,-38.5 52.0,-38.0 52.5,-37.5 53.0,-37.0 53.5,-36.5 54.0,-36.0 54.5,-35.5 55.0,-35.0 55.5,-34.5 56.0,-34.0 56.5,-33.5 57.0,-33.0 57.5,-32.5 58.0,-32.0 58.5,-31.5 59.0,-31.0 59.5,-30.5 60.0,-30.0 60.5,-29.5 61.0,-29.0 61.5,-28.5 62.0,-28.0 62.5,-27.5 63.0,-27.0 63.5,-26.5 64.0,-26.0 64.5,-25.5 65.0,-25.0 65.5,-24.5 66.0,-24.0 66.5,-23.5 67.0,-23.0 67.5,-22.5 68.0,-22.0 68.5,-21.5 69.0,-21.0 69.5,-20.5 70.0,-20.0 70.5,-19.5 71.0,-19.0 71.5,-18.5 72.0,-18.0 72.5,-17.5 73.0,-17.0 73.5,-16.5 74.0,-16.0 74.5,-15.5 75.0,-15.0 75.5,-14.5 76.0,-14.0 76.5,-13.5 77.0,-13.0 77.5,-12.5 78.0,-12.0 78.5,-11.5 79.0,-11.0 79.5,-10.5 80.0,-10.0 80.5,-9.5 81.0,-9.0 81.5,-8.5 82.0,-8.0 82.5,-7.5 83.0,-7.0 83.5,-6.5 84.0,-6.0 84.5,-5.5 85.0,-5.0 85.5,-4.5 86.0,-4.0 86.5,-3.5 87.0,-3.0 87.5,-2.5 88.0,-2.0 88.5,-1.5 89.0,-1.0 89.5,-0.5 90.0,0.0 90.5,0.5 91.0,1.0 91.5,1.5 92.0,2.0 92.5,2.5 93.0,3.0 93.5,3.5 94.0,4.0 94.5,4.5 95.0,5.0 95.5,5.5 96.0,6.0 96.5,6.5 97.0,7.0 97.5,7.5 98.0,8.0 98.5,8.5 99.0,9.0 99.5,9.5 100.0,10.0 100.5,10.5 101.0,11.0 101.5,11.5 102.0,12.0 102.5,12.5 103.0,13.0 103.5,13.5 104.0,14.0 104.5,14.5 105.0,15.0 105.5,15.5 106.0,16.0 106.5,16.5 107.0,17.0 107.5,17.5 108.0,18.0 108.5,18.5 109.0,19.0 109.5,19.5 110.0,20.0 110.5,20.5 111.0,21.0 111.5,21.5 112.0,22.0 112.5,22.5 113.0,23.0 113.5,23.5 114.0,24.0 114.5,24.5 115.0,25.0 115.5,25.5 116.0,26.0 116.5,26.5 117.0,27.0 117.5,27.5 118.0,28.0 118.5,28.5 119.0,29.0 119.5,29.5 120.0,30.0 120.5,30.5 121.0,31.0 121.5,31.5 122.0,32.0 122.5,32.5 123.0,33.0 123.5,33.5 124.0,34.0 124.5,34.5 125.0,35.0 125.5,35.5 126.0,36.0 126.5,36.5 127.0,37.0 127.5,37.5 128.0,38.0 128.5,38.5 129.0,39.0 129.5,39.5 130.0,40.0 130.5,40.5 131.0,41.0 131.5,41.5 132.0,42.0 132.5,42.5 133.0,43.0 133.5,43.5 134.0,44.0 134.5,44.5 135.0,45.0 135.5,45.5 136.0,46.0 136.5,46.5 137.0,47.0 137.5,47.5 138.0,48.0 138.5,48.5 139.0,49.0 139.5,49.5 140.0,50.0 140.5,50.5 141.0,51.0 141.5,51.5 142.0,52.0 142.5,52.5 143.0,53.0 143.5,53.5 144.0,54.0 144.5,54.5 145.0,55.0 145.5,55.5 146.0,56.0 146.5,56.5 147.0,57.0 147.5,57.5 148.0,58.0 148.5,58.5 149.0,59.0 149.5,59.5 150.0,60.0 150.5,60.5 151.0,61.0 151.5,61.5 152.0,62.0 152.5,62.5 153.0,63.0 153.5,63.5 154.0,64.0 154.5,64.5 155.0,65.0 155.5,65.5 156.0,66.0 156.5,66.5 157.0,67.0 157.5,67.5 158.0,68.0 158.5,68.5 159.0,69.0 159.5,69.5 160.0,70.0 160.5,70.5 161.0,71.0 161.5,71.5 162.0,72.0 162.5,72.5 163.0,73.0 163.5,73.5 164.0,74.0 164.5,74.5 165.0,75.0 165.5,75.5 166.0,76.0 166.5,76.5 167.0,77.0 167.5,77.5 168.0,78.0 168.5,78.5 169.0,79.0 169.5,79.5 170.0,80.0 170.5,80.5 171.0,81.0 171.5,81.5 172.0,82.0 172.5,82.5 173.0,83.0 173.5,83.5 174.0,84.0 174.5,84.5 175.0,85.0 175.5,85.5 176.0,86.0 176.5,86.5 177.0,87.0 177.5,87.5 178.0,88.0 178.5,88.5 179.0,89.0 179.5,89.5 180.0,90.0 180.5,90.5 181.0,91.0 181.5,91.5 182.0,92.0 182.5,92.5 183.0,93.0 183.5,93.5 184.0,94.0 184.5,94.5 185.0,95.0 185.5,95.5 186.0,96.0 186.5,96.5 187.0,97.0 187.5,97.5 188.0,98.0 188.5,98.5 189.0,99.0 189.5,99.5 190.0,100.0 190.5,100.5 191.0,101.0 191.5,101.5 192.0,102.0 192.5,102.5 193.0,103.0 193.5,103.5 194.0,104.0 194.5,104.5 195.0,105.0 195.5,105.5 196.0,106.0 196.5,106.5 197.0,107.0 197.5,107.5 198.0,108.0 198.5,108.5 199.0,109.0 199.5,109.5 200.0,110.0 200.5,110.5 201.0,111.0 201.5,111.5 202.0,112.0 202.5,112.5 203.0,113.0 203.5,113.5 204.0,114.0 204.5,114.5 205.0,115.0 205.5,115.5 206.0,116.0 206.5,116.5 207.0,117.0 207.5,117.5 208.0,118.0 208.5,118.5 209.0,119.0 209.5,119.5 210.0,120.0 210.5,120.5 211.0,121.0 211.5,121.5 212.0,122.0 212.5,122.5 213.0,123.0 213.5,123.5 214.0,124.0 214.5,124.5 215.0,125.0 215.5,125.5 216.0,126.0 216.5,126.5 217.0,127.0 217.5,127.5 218.0,128.0 218.5,128.5 219.0,129.0 219.5,129.5 220.0,130.0 220.5,130.5 221.0,131.0 221.5,131.5 222.0,132.0 222.5,132.5 223.0,133.0 223.5,133.5 224.0,134.0 224.5,134.5 225.0,135.0 225.5,135.5 226.0,136.0 226.5,136.5 227.0,137.0 227.5,137.5 228.0,138.0 228.5,138.5 229.0,139.0 229.5,139.5 230.0,140.0 230.5,140.5 231.0,141.0 231.5,141.5 232.0,142.0 232.5,142.5 233.0,143.0 233.5,143.5 234.0,144.0 234.5,144.5 235.0,145.0 235.5,145.5 236.0,146.0 236.5,146.5 237.0,147.0 237.5,147.5 238.0,148.0 238.5,148.5 239.0,149.0 239.5,149.5 240.0,150.0 240.5,150.5 241.0,151.0 241.5,151.5 242.0,152.0 242.5,152.5 243.0,153.0 243.5,153.5 244.0,154.0 244.5,154.5 245.0,155.0 245.5,155.5 246.0,156.0 246.5,156.5 247.0,157.0 247.5,157.5 248.0,158.0 248.5,158.5 249.0,159.0 249.5,159.5 250.0,160.0 250.5,160.5 251.0,161.0 251.5,161.5 252.0,162.0 252.5,162.5 253.0,163.0 253.5,163.5 254.0,164.0 254.5,164.5 255.0,165.0 255.5,165.5 256.0,166.0 256.5,166.5 257.0,167.0 257.5,167.5 258.0,168.0 258.5,168.5 259.0,169.0 259.5,169.5 260.0,170.0 260.5,170.5 261.0,171.0 261.5,171.5 262.0,172.0 262.5,172.5 263.0,173.0 263.5,173.5 264.0,174.0 264.5,174.5 265.0,175.0 265.5,175.5 266.0,176.0 266.5,176.5 267.0,177.0 267.5,177.5 268.0,178.0 268.5,178.5 269.0,179.0 269.5,179.5 270.0,180.0 270.5,180.5 271.0,181.0 271.5,181.5 272.0,182.0 272.5,182.5 273.0,183.0 273.5,183.5 274.0,184.0 274.5,184.5 275.0,185.0 275.5,185.5 276.0,186.0 276.5,186.5 277.0,187.0 277.5,187.5 278.0,188.0 278.5,188.5 279.0,189.0 279.5,189.5 280.0,190.0 280.5,190.5 281.0,191.0 281.5,191.5 282.0,192.0 282.5,192.5 283.0,193.0 283.5,193.5 284.0,194.0 284.5,194.5 285.0,195.0 285.5,195.5 286.0,196.0 286.5,196.5 287.0,197.0 287.5,197.5 288.0,198.0 288.5,198.5 289.0,199.0 289.5,199.5 290.0,200.0 290.5,200.5 291.0,201.0 291.5,201.5 292.0,202.0 292.5,202.5 293.0,203.0 293.5,203.5 294.0,204.0 294.5,204.5 295.0,205.0 295.5,205.5 296.0,206.0 296.5,206.5 297.0,207.0 297.5,207.5 298.0,208.0 298.5,208.5 299.0,209.0 299.5,209.5 300.0,210.0 300.5,210.5 301.0,211.0 301.5,211.5 302.0,212.0 302.5,212.5 303.0,213.0 303.5,213.5 304.0,214.0 304.5,214.5 305.0,215.0 305.5,215.5 306.0,216.0 306.5,216.5 307.0,217.0 307.5,217.5 308.0,218.0 308.5,218.5 309.0,219.0 309.5,219.5 310.0,220.0 310.5,220.5 311.0,221.0 311.5,221.5 312.0,222.0 312.5,222.5 313.0,223.0 313.5,223.5 314.0,224.0 314.5,224.5 315.0,225.0 315.5,225.5 316.0,226.0 316.5,226.5 317.0,227.0 317.5,227.5 318.0,228.0 318.5,228.5 319.0,229.0 319.5,229.5 320.0,230.0 320.5,230.5 321.0,231.0 321.5,231.5 322.0,232.0 322.5,232.5 323.0,233.0 323.5,233.5 324.0,234.0 324.5,234.5 325.0,235.0 325.5,235.5 326.0,236.0 326.5,236.5 327.0,237.0 327.5,237.5 328.0,238.0 328.5,238.5 329.0,239.0 329.5,239.5 330.0,240.0 330.5,240.5 331.0,241.0 331.5,241.5 332.0,242.0 332.5,242.5 333.0,243.0 333.5,243.5 334.0,244.0 334.5,244.5 335.0,245.0 335.5,245.5 336.0,246.0 336.5,246.5 337.0,247.0 337.5,247.5 338.0,248.0 338.5,248.5 339.0,249.0 339.5,249.5 340.0,250.0 340.5,250.5 341.0,251.0 341.5,251.5 342.0,252.0 342.5,252.5 343.0,253.0 343.5,253.5 344.0,254.0 344.5,254.5 345.0,255.0 345.5,255.5 346.0,256.0 346.5,256.5 347.0,257.0 347.5,257.5 348.0,258.0 348.5,258.5 349.0,259.0 349.5,259.5 350.0,260.0 350.5,260.5 351.0,261.0 351.5,261.5 352.0,262.0 352.5,262.5 353.0,263.0 353.5,263.5 354.0,264.0 354.5,264.5 355.0,265.0 355.5,265.5 356.0,266.0 356.5,266.5 357.0,267.0 357.5,267.5 358.0,268.0 358.5,268.5 359.0,269.0 359.5,269.5 360.0,270.0 360.5,270.5 361.0,271.0 361.5,271.5 362.0,272.0 362.5,272.5 363.0,273.0 363.5,273.5 364.0,274.0 364.5,274.5 365.0,275.0 365.5,275.5 366.0,276.0 366.5,276.5 367.0,277.0 367.5,277.5 368.0,278.0 368.5,278.5 369.0,279.0 369.5,279.5 370.0,280.0 370.5,280.5 371.0,281.0 371.5,281.5 372.0,282.0 372.5,282.5 373.0,283.0 373.5,283.5 374.0,284.0 374.5,284.5 375.0,285.0 375.5,285.5 376.0,286.0 376.5,286.5 377.0,287.0 377.5,287.5 378.0,288.0 378.5,288.5 379.0,289.0 379.5,289.5 380.0,290.0 380.5,290.5 381.0,291.0 381.5,291.5 382.0,292.0 382.5,292.5 383.0,293.0 383.5,293.5 384.0,294.0 384.5,294.5 385.0,295.0 385.5,295.5 386.0,296.0 386.5,296.5 387.0,297.0 387.5,297.5 388.0,298.0 388.5,298.5 389.0,299.0 389.5,299.5 390.0,300.0 390.5,300.5 391.0,301.0 391.5,301.5 392.0,302.0 392.5,302.5 393.0,303.0 393.5,303.5 394.0,304.0 394.5,304.5 395.0,305.0 395.5,305.5 396.0,306.0 396.5,306.5 397.0,307.0 397.5,307.5 398.0,308.0 398.5,308.5 399.0,309.0 399.5,309.5 400.0,310.0" fill="none" stroke="blue" stroke-width="1" />
    <text x="135.0" y="110.0" font-size="8" fill="black">y = mx+b</text>
</svg>